ISO-10303-21;
HEADER;
FILE_DESCRIPTION(('Open CASCADE Model'),'2;1');
FILE_NAME('Open CASCADE Shape Model','2026-08-20T18:05:10',('Author'),(
    'Open CASCADE'),'Open CASCADE STEP processor 7.9','Open CASCADE 7.9'
  ,'Unknown');
FILE_SCHEMA(('AUTOMOTIVE_DESIGN { 1 0 10303 214 1 1 1 1 }'));
ENDSEC;
DATA;
#1 = APPLICATION_PROTOCOL_DEFINITION('international standard',
  'automotive_design',2000,#2);
#2 = APPLICATION_CONTEXT(
  'core data for automotive mechanical design processes');
#3 = SHAPE_DEFINITION_REPRESENTATION(#4,#10);
#4 = PRODUCT_DEFINITION_SHAPE('','',#5);
#5 = PRODUCT_DEFINITION('design','',#6,#9);
#6 = PRODUCT_DEFINITION_FORMATION('','',#7);
#7 = PRODUCT('Open CASCADE STEP translator 7.9 13',
  'Open CASCADE STEP translator 7.9 13','',(#8));
#8 = PRODUCT_CONTEXT('',#2,'mechanical');
#9 = PRODUCT_DEFINITION_CONTEXT('part definition',#2,'design');
#10 = ADVANCED_BREP_SHAPE_REPRESENTATION('',(#11,#15),#1194);
#11 = AXIS2_PLACEMENT_3D('',#12,#13,#14);
#12 = CARTESIAN_POINT('',(0.,0.,0.));
#13 = DIRECTION('',(0.,0.,1.));
#14 = DIRECTION('',(1.,0.,-0.));
#15 = MANIFOLD_SOLID_BREP('',#16);
#16 = CLOSED_SHELL('',(#17,#442,#697,#754,#811,#868,#925,#1059,#1086,
    #1113,#1140,#1167));
#17 = ADVANCED_FACE('',(#18),#32,.T.);
#18 = FACE_BOUND('',#19,.T.);
#19 = EDGE_LOOP('',(#20,#50,#81,#82,#115,#161,#189,#235,#263,#318,#346,
    #416));
#20 = ORIENTED_EDGE('',*,*,#21,.F.);
#21 = EDGE_CURVE('',#22,#24,#26,.T.);
#22 = VERTEX_POINT('',#23);
#23 = CARTESIAN_POINT('',(28.,0.,191.5));
#24 = VERTEX_POINT('',#25);
#25 = CARTESIAN_POINT('',(28.,0.,194.5));
#26 = SEAM_CURVE('',#27,(#31,#43),.PCURVE_S1.);
#27 = LINE('',#28,#29);
#28 = CARTESIAN_POINT('',(28.,0.,191.5));
#29 = VECTOR('',#30,1.);
#30 = DIRECTION('',(-0.,-0.,1.));
#31 = PCURVE('',#32,#37);
#32 = CYLINDRICAL_SURFACE('',#33,28.);
#33 = AXIS2_PLACEMENT_3D('',#34,#35,#36);
#34 = CARTESIAN_POINT('',(0.,0.,191.5));
#35 = DIRECTION('',(-0.,0.,-1.));
#36 = DIRECTION('',(1.,-0.,-0.));
#37 = DEFINITIONAL_REPRESENTATION('',(#38),#42);
#38 = LINE('',#39,#40);
#39 = CARTESIAN_POINT('',(6.28318530718,0.));
#40 = VECTOR('',#41,1.);
#41 = DIRECTION('',(0.,-1.));
#42 = ( GEOMETRIC_REPRESENTATION_CONTEXT(2) 
PARAMETRIC_REPRESENTATION_CONTEXT() REPRESENTATION_CONTEXT('2D SPACE',''
  ) );
#43 = PCURVE('',#32,#44);
#44 = DEFINITIONAL_REPRESENTATION('',(#45),#49);
#45 = LINE('',#46,#47);
#46 = CARTESIAN_POINT('',(0.,0.));
#47 = VECTOR('',#48,1.);
#48 = DIRECTION('',(0.,-1.));
#49 = ( GEOMETRIC_REPRESENTATION_CONTEXT(2) 
PARAMETRIC_REPRESENTATION_CONTEXT() REPRESENTATION_CONTEXT('2D SPACE',''
  ) );
#50 = ORIENTED_EDGE('',*,*,#51,.F.);
#51 = EDGE_CURVE('',#22,#22,#52,.T.);
#52 = SURFACE_CURVE('',#53,(#58,#65),.PCURVE_S1.);
#53 = CIRCLE('',#54,28.);
#54 = AXIS2_PLACEMENT_3D('',#55,#56,#57);
#55 = CARTESIAN_POINT('',(0.,0.,191.5));
#56 = DIRECTION('',(0.,0.,-1.));
#57 = DIRECTION('',(1.,-0.,-0.));
#58 = PCURVE('',#32,#59);
#59 = DEFINITIONAL_REPRESENTATION('',(#60),#64);
#60 = LINE('',#61,#62);
#61 = CARTESIAN_POINT('',(0.,0.));
#62 = VECTOR('',#63,1.);
#63 = DIRECTION('',(1.,0.));
#64 = ( GEOMETRIC_REPRESENTATION_CONTEXT(2) 
PARAMETRIC_REPRESENTATION_CONTEXT() REPRESENTATION_CONTEXT('2D SPACE',''
  ) );
#65 = PCURVE('',#66,#71);
#66 = PLANE('',#67);
#67 = AXIS2_PLACEMENT_3D('',#68,#69,#70);
#68 = CARTESIAN_POINT('',(-1.562788722902E-15,1.143003679204E-15,191.5)
  );
#69 = DIRECTION('',(-0.,-0.,1.));
#70 = DIRECTION('',(-1.,0.,0.));
#71 = DEFINITIONAL_REPRESENTATION('',(#72),#80);
#72 = ( BOUNDED_CURVE() B_SPLINE_CURVE(2,(#73,#74,#75,#76,#77,#78,#79),
.UNSPECIFIED.,.T.,.F.) B_SPLINE_CURVE_WITH_KNOTS((1,2,2,2,2,1),(
    -2.094395102393,0.,2.094395102393,4.188790204786,6.28318530718,
8.377580409573),.UNSPECIFIED.) CURVE() GEOMETRIC_REPRESENTATION_ITEM() 
RATIONAL_B_SPLINE_CURVE((1.,0.5,1.,0.5,1.,0.5,1.)) REPRESENTATION_ITEM(
  '') );
#73 = CARTESIAN_POINT('',(-28.,1.143003679204E-15));
#74 = CARTESIAN_POINT('',(-28.,48.497422611929));
#75 = CARTESIAN_POINT('',(14.,24.248711305964));
#76 = CARTESIAN_POINT('',(56.,8.001025754429E-15));
#77 = CARTESIAN_POINT('',(14.,-24.24871130596));
#78 = CARTESIAN_POINT('',(-28.,-48.49742261192));
#79 = CARTESIAN_POINT('',(-28.,1.143003679204E-15));
#80 = ( GEOMETRIC_REPRESENTATION_CONTEXT(2) 
PARAMETRIC_REPRESENTATION_CONTEXT() REPRESENTATION_CONTEXT('2D SPACE',''
  ) );
#81 = ORIENTED_EDGE('',*,*,#21,.T.);
#82 = ORIENTED_EDGE('',*,*,#83,.T.);
#83 = EDGE_CURVE('',#24,#84,#86,.T.);
#84 = VERTEX_POINT('',#85);
#85 = CARTESIAN_POINT('',(20.374765069874,-19.20596127111,194.5));
#86 = SURFACE_CURVE('',#87,(#92,#99),.PCURVE_S1.);
#87 = CIRCLE('',#88,28.);
#88 = AXIS2_PLACEMENT_3D('',#89,#90,#91);
#89 = CARTESIAN_POINT('',(0.,0.,194.5));
#90 = DIRECTION('',(0.,0.,-1.));
#91 = DIRECTION('',(1.,-0.,-0.));
#92 = PCURVE('',#32,#93);
#93 = DEFINITIONAL_REPRESENTATION('',(#94),#98);
#94 = LINE('',#95,#96);
#95 = CARTESIAN_POINT('',(0.,-3.));
#96 = VECTOR('',#97,1.);
#97 = DIRECTION('',(1.,0.));
#98 = ( GEOMETRIC_REPRESENTATION_CONTEXT(2) 
PARAMETRIC_REPRESENTATION_CONTEXT() REPRESENTATION_CONTEXT('2D SPACE',''
  ) );
#99 = PCURVE('',#100,#105);
#100 = PLANE('',#101);
#101 = AXIS2_PLACEMENT_3D('',#102,#103,#104);
#102 = CARTESIAN_POINT('',(-1.562788722902E-15,1.143003679204E-15,194.5)
  );
#103 = DIRECTION('',(-0.,-0.,1.));
#104 = DIRECTION('',(-1.,0.,0.));
#105 = DEFINITIONAL_REPRESENTATION('',(#106),#114);
#106 = ( BOUNDED_CURVE() B_SPLINE_CURVE(2,(#107,#108,#109,#110,#111,#112
,#113),.UNSPECIFIED.,.T.,.F.) B_SPLINE_CURVE_WITH_KNOTS((1,2,2,2,2,1),(
    -2.094395102393,0.,2.094395102393,4.188790204786,6.28318530718,
8.377580409573),.UNSPECIFIED.) CURVE() GEOMETRIC_REPRESENTATION_ITEM() 
RATIONAL_B_SPLINE_CURVE((1.,0.5,1.,0.5,1.,0.5,1.)) REPRESENTATION_ITEM(
  '') );
#107 = CARTESIAN_POINT('',(-28.,1.143003679204E-15));
#108 = CARTESIAN_POINT('',(-28.,48.497422611929));
#109 = CARTESIAN_POINT('',(14.,24.248711305964));
#110 = CARTESIAN_POINT('',(56.,8.001025754429E-15));
#111 = CARTESIAN_POINT('',(14.,-24.24871130596));
#112 = CARTESIAN_POINT('',(-28.,-48.49742261192));
#113 = CARTESIAN_POINT('',(-28.,1.143003679204E-15));
#114 = ( GEOMETRIC_REPRESENTATION_CONTEXT(2) 
PARAMETRIC_REPRESENTATION_CONTEXT() REPRESENTATION_CONTEXT('2D SPACE',''
  ) );
#115 = ORIENTED_EDGE('',*,*,#116,.T.);
#116 = EDGE_CURVE('',#84,#117,#119,.T.);
#117 = VERTEX_POINT('',#118);
#118 = CARTESIAN_POINT('',(19.205961271111,-20.37476506987,194.5));
#119 = SURFACE_CURVE('',#120,(#130,#143),.PCURVE_S1.);
#120 = B_SPLINE_CURVE_WITH_KNOTS('',8,(#121,#122,#123,#124,#125,#126,
    #127,#128,#129),.UNSPECIFIED.,.F.,.F.,(9,9),(0.,1.),
  .PIECEWISE_BEZIER_KNOTS.);
#121 = CARTESIAN_POINT('',(20.374765069874,-19.20596127111,194.5));
#122 = CARTESIAN_POINT('',(20.241690328767,-19.34713444898,
    194.45381887455));
#123 = CARTESIAN_POINT('',(20.09990884781,-19.49530451785,
    194.41660168965));
#124 = CARTESIAN_POINT('',(19.951983359002,-19.64730578757,
    194.3923227322));
#125 = CARTESIAN_POINT('',(19.800340695379,-19.80034268617,
    194.3838433821));
#126 = CARTESIAN_POINT('',(19.647303771471,-19.9519853816,
    194.39232268624));
#127 = CARTESIAN_POINT('',(19.495301096069,-20.09991219142,
    194.41660217281));
#128 = CARTESIAN_POINT('',(19.3471304179,-20.24169415261,194.45382006529
    ));
#129 = CARTESIAN_POINT('',(19.20595943695,-20.37476679881,194.5000006));
#130 = PCURVE('',#32,#131);
#131 = DEFINITIONAL_REPRESENTATION('',(#132),#142);
#132 = B_SPLINE_CURVE_WITH_KNOTS('',8,(#133,#134,#135,#136,#137,#138,
    #139,#140,#141),.UNSPECIFIED.,.F.,.F.,(9,9),(0.,1.),
  .PIECEWISE_BEZIER_KNOTS.);
#133 = CARTESIAN_POINT('',(0.755877122408,-3.));
#134 = CARTESIAN_POINT('',(0.762805947226,-2.953818874551));
#135 = CARTESIAN_POINT('',(0.770129901433,-2.916601689658));
#136 = CARTESIAN_POINT('',(0.777704439745,-2.892322732202));
#137 = CARTESIAN_POINT('',(0.78539821368,-2.883843382103));
#138 = CARTESIAN_POINT('',(0.793091989029,-2.892322686243));
#139 = CARTESIAN_POINT('',(0.800666596204,-2.916602172817));
#140 = CARTESIAN_POINT('',(0.807990578004,-2.953820065293));
#141 = CARTESIAN_POINT('',(0.814919294408,-3.0000006));
#142 = ( GEOMETRIC_REPRESENTATION_CONTEXT(2) 
PARAMETRIC_REPRESENTATION_CONTEXT() REPRESENTATION_CONTEXT('2D SPACE',''
  ) );
#143 = PCURVE('',#144,#149);
#144 = CONICAL_SURFACE('',#145,1.7,0.785398163397);
#145 = AXIS2_PLACEMENT_3D('',#146,#147,#148);
#146 = CARTESIAN_POINT('',(17.677669529664,-17.67766952966,193.1));
#147 = DIRECTION('',(-0.,-0.,1.));
#148 = DIRECTION('',(1.,-0.,-0.));
#149 = DEFINITIONAL_REPRESENTATION('',(#150),#160);
#150 = B_SPLINE_CURVE_WITH_KNOTS('',8,(#151,#152,#153,#154,#155,#156,
    #157,#158,#159),.UNSPECIFIED.,.F.,.F.,(9,9),(0.,1.),
  .PIECEWISE_BEZIER_KNOTS.);
#151 = CARTESIAN_POINT('',(-0.515531495314,1.4));
#152 = CARTESIAN_POINT('',(-0.576315530306,1.353818874551));
#153 = CARTESIAN_POINT('',(-0.642518535032,1.316601689655));
#154 = CARTESIAN_POINT('',(-0.712799627067,1.292322732207));
#155 = CARTESIAN_POINT('',(-0.785398617982,1.283843382098));
#156 = CARTESIAN_POINT('',(-0.857997680253,1.292322686245));
#157 = CARTESIAN_POINT('',(-0.928279392681,1.316602172817));
#158 = CARTESIAN_POINT('',(-0.994482559473,1.353820065292));
#159 = CARTESIAN_POINT('',(-1.055265621203,1.400000599999));
#160 = ( GEOMETRIC_REPRESENTATION_CONTEXT(2) 
PARAMETRIC_REPRESENTATION_CONTEXT() REPRESENTATION_CONTEXT('2D SPACE',''
  ) );
#161 = ORIENTED_EDGE('',*,*,#162,.T.);
#162 = EDGE_CURVE('',#117,#163,#165,.T.);
#163 = VERTEX_POINT('',#164);
#164 = CARTESIAN_POINT('',(-19.20596127111,-20.37476506987,194.5));
#165 = SURFACE_CURVE('',#166,(#171,#178),.PCURVE_S1.);
#166 = CIRCLE('',#167,28.);
#167 = AXIS2_PLACEMENT_3D('',#168,#169,#170);
#168 = CARTESIAN_POINT('',(0.,0.,194.5));
#169 = DIRECTION('',(0.,0.,-1.));
#170 = DIRECTION('',(1.,-0.,-0.));
#171 = PCURVE('',#32,#172);
#172 = DEFINITIONAL_REPRESENTATION('',(#173),#177);
#173 = LINE('',#174,#175);
#174 = CARTESIAN_POINT('',(0.,-3.));
#175 = VECTOR('',#176,1.);
#176 = DIRECTION('',(1.,0.));
#177 = ( GEOMETRIC_REPRESENTATION_CONTEXT(2) 
PARAMETRIC_REPRESENTATION_CONTEXT() REPRESENTATION_CONTEXT('2D SPACE',''
  ) );
#178 = PCURVE('',#100,#179);
#179 = DEFINITIONAL_REPRESENTATION('',(#180),#188);
#180 = ( BOUNDED_CURVE() B_SPLINE_CURVE(2,(#181,#182,#183,#184,#185,#186
,#187),.UNSPECIFIED.,.T.,.F.) B_SPLINE_CURVE_WITH_KNOTS((1,2,2,2,2,1),(
    -2.094395102393,0.,2.094395102393,4.188790204786,6.28318530718,
8.377580409573),.UNSPECIFIED.) CURVE() GEOMETRIC_REPRESENTATION_ITEM() 
RATIONAL_B_SPLINE_CURVE((1.,0.5,1.,0.5,1.,0.5,1.)) REPRESENTATION_ITEM(
  '') );
#181 = CARTESIAN_POINT('',(-28.,1.143003679204E-15));
#182 = CARTESIAN_POINT('',(-28.,48.497422611929));
#183 = CARTESIAN_POINT('',(14.,24.248711305964));
#184 = CARTESIAN_POINT('',(56.,8.001025754429E-15));
#185 = CARTESIAN_POINT('',(14.,-24.24871130596));
#186 = CARTESIAN_POINT('',(-28.,-48.49742261192));
#187 = CARTESIAN_POINT('',(-28.,1.143003679204E-15));
#188 = ( GEOMETRIC_REPRESENTATION_CONTEXT(2) 
PARAMETRIC_REPRESENTATION_CONTEXT() REPRESENTATION_CONTEXT('2D SPACE',''
  ) );
#189 = ORIENTED_EDGE('',*,*,#190,.T.);
#190 = EDGE_CURVE('',#163,#191,#193,.T.);
#191 = VERTEX_POINT('',#192);
#192 = CARTESIAN_POINT('',(-20.37476506987,-19.20596127111,194.5));
#193 = SURFACE_CURVE('',#194,(#204,#217),.PCURVE_S1.);
#194 = B_SPLINE_CURVE_WITH_KNOTS('',8,(#195,#196,#197,#198,#199,#200,
    #201,#202,#203),.UNSPECIFIED.,.F.,.F.,(9,9),(0.,1.),
  .PIECEWISE_BEZIER_KNOTS.);
#195 = CARTESIAN_POINT('',(-19.20596127111,-20.37476506987,194.5));
#196 = CARTESIAN_POINT('',(-19.34713591632,-20.2416889456,
    194.45381839454));
#197 = CARTESIAN_POINT('',(-19.49530642004,-20.09990701127,
    194.41660130035));
#198 = CARTESIAN_POINT('',(-19.64730755526,-19.9519816074,
    194.39232262394));
#199 = CARTESIAN_POINT('',(-19.80034336673,-19.80033996472,
    194.38384369346));
#200 = CARTESIAN_POINT('',(-19.95198413479,-19.64730494398,
    194.39232312433));
#201 = CARTESIAN_POINT('',(-20.09990871672,-19.49530465955,
    194.41660162134));
#202 = CARTESIAN_POINT('',(-20.24169052067,-19.34713427086,
    194.45381880489));
#203 = CARTESIAN_POINT('',(-20.37476679882,-19.20595943694,194.5000006)
  );
#204 = PCURVE('',#32,#205);
#205 = DEFINITIONAL_REPRESENTATION('',(#206),#216);
#206 = B_SPLINE_CURVE_WITH_KNOTS('',8,(#207,#208,#209,#210,#211,#212,
    #213,#214,#215),.UNSPECIFIED.,.F.,.F.,(9,9),(0.,1.),
  .PIECEWISE_BEZIER_KNOTS.);
#207 = CARTESIAN_POINT('',(2.326673449203,-3.));
#208 = CARTESIAN_POINT('',(2.333602346038,-2.953818394549));
#209 = CARTESIAN_POINT('',(2.340926322652,-2.916601300352));
#210 = CARTESIAN_POINT('',(2.348500855409,-2.892322623946));
#211 = CARTESIAN_POINT('',(2.356194576086,-2.883843693468));
#212 = CARTESIAN_POINT('',(2.363888254765,-2.892323124332));
#213 = CARTESIAN_POINT('',(2.371462745269,-2.916601621345));
#214 = CARTESIAN_POINT('',(2.378786715694,-2.953818804891));
#215 = CARTESIAN_POINT('',(2.385715621203,-3.000000600001));
#216 = ( GEOMETRIC_REPRESENTATION_CONTEXT(2) 
PARAMETRIC_REPRESENTATION_CONTEXT() REPRESENTATION_CONTEXT('2D SPACE',''
  ) );
#217 = PCURVE('',#218,#223);
#218 = CONICAL_SURFACE('',#219,1.7,0.785398163397);
#219 = AXIS2_PLACEMENT_3D('',#220,#221,#222);
#220 = CARTESIAN_POINT('',(-17.67766952966,-17.67766952966,193.1));
#221 = DIRECTION('',(-0.,-0.,1.));
#222 = DIRECTION('',(1.,-0.,-0.));
#223 = DEFINITIONAL_REPRESENTATION('',(#224),#234);
#224 = B_SPLINE_CURVE_WITH_KNOTS('',8,(#225,#226,#227,#228,#229,#230,
    #231,#232,#233),.UNSPECIFIED.,.F.,.F.,(9,9),(0.,1.),
  .PIECEWISE_BEZIER_KNOTS.);
#225 = CARTESIAN_POINT('',(-2.086327822109,1.4));
#226 = CARTESIAN_POINT('',(-2.147112488884,1.353818394549));
#227 = CARTESIAN_POINT('',(-2.213315732145,1.316601300348));
#228 = CARTESIAN_POINT('',(-2.283596790424,1.292322623956));
#229 = CARTESIAN_POINT('',(-2.356195318705,1.283843693455));
#230 = CARTESIAN_POINT('',(-2.428793377995,1.292323124342));
#231 = CARTESIAN_POINT('',(-2.499074053153,1.31660162134));
#232 = CARTESIAN_POINT('',(-2.565277227323,1.353818804891));
#233 = CARTESIAN_POINT('',(-2.626061948001,1.400000600001));
#234 = ( GEOMETRIC_REPRESENTATION_CONTEXT(2) 
PARAMETRIC_REPRESENTATION_CONTEXT() REPRESENTATION_CONTEXT('2D SPACE',''
  ) );
#235 = ORIENTED_EDGE('',*,*,#236,.T.);
#236 = EDGE_CURVE('',#191,#237,#239,.T.);
#237 = VERTEX_POINT('',#238);
#238 = CARTESIAN_POINT('',(-20.37476506987,19.205961271112,194.5));
#239 = SURFACE_CURVE('',#240,(#245,#252),.PCURVE_S1.);
#240 = CIRCLE('',#241,28.);
#241 = AXIS2_PLACEMENT_3D('',#242,#243,#244);
#242 = CARTESIAN_POINT('',(0.,0.,194.5));
#243 = DIRECTION('',(0.,0.,-1.));
#244 = DIRECTION('',(1.,-0.,-0.));
#245 = PCURVE('',#32,#246);
#246 = DEFINITIONAL_REPRESENTATION('',(#247),#251);
#247 = LINE('',#248,#249);
#248 = CARTESIAN_POINT('',(0.,-3.));
#249 = VECTOR('',#250,1.);
#250 = DIRECTION('',(1.,0.));
#251 = ( GEOMETRIC_REPRESENTATION_CONTEXT(2) 
PARAMETRIC_REPRESENTATION_CONTEXT() REPRESENTATION_CONTEXT('2D SPACE',''
  ) );
#252 = PCURVE('',#100,#253);
#253 = DEFINITIONAL_REPRESENTATION('',(#254),#262);
#254 = ( BOUNDED_CURVE() B_SPLINE_CURVE(2,(#255,#256,#257,#258,#259,#260
,#261),.UNSPECIFIED.,.T.,.F.) B_SPLINE_CURVE_WITH_KNOTS((1,2,2,2,2,1),(
    -2.094395102393,0.,2.094395102393,4.188790204786,6.28318530718,
8.377580409573),.UNSPECIFIED.) CURVE() GEOMETRIC_REPRESENTATION_ITEM() 
RATIONAL_B_SPLINE_CURVE((1.,0.5,1.,0.5,1.,0.5,1.)) REPRESENTATION_ITEM(
  '') );
#255 = CARTESIAN_POINT('',(-28.,1.143003679204E-15));
#256 = CARTESIAN_POINT('',(-28.,48.497422611929));
#257 = CARTESIAN_POINT('',(14.,24.248711305964));
#258 = CARTESIAN_POINT('',(56.,8.001025754429E-15));
#259 = CARTESIAN_POINT('',(14.,-24.24871130596));
#260 = CARTESIAN_POINT('',(-28.,-48.49742261192));
#261 = CARTESIAN_POINT('',(-28.,1.143003679204E-15));
#262 = ( GEOMETRIC_REPRESENTATION_CONTEXT(2) 
PARAMETRIC_REPRESENTATION_CONTEXT() REPRESENTATION_CONTEXT('2D SPACE',''
  ) );
#263 = ORIENTED_EDGE('',*,*,#264,.T.);
#264 = EDGE_CURVE('',#237,#265,#267,.T.);
#265 = VERTEX_POINT('',#266);
#266 = CARTESIAN_POINT('',(-19.20596127111,20.374765069874,194.5));
#267 = SURFACE_CURVE('',#268,(#281,#297),.PCURVE_S1.);
#268 = B_SPLINE_CURVE_WITH_KNOTS('',6,(#269,#270,#271,#272,#273,#274,
    #275,#276,#277,#278,#279,#280),.UNSPECIFIED.,.F.,.F.,(7,5,7),(0.,
    0.507387397177,1.),.UNSPECIFIED.);
#269 = CARTESIAN_POINT('',(-20.37476506987,19.205961271112,194.5));
#270 = CARTESIAN_POINT('',(-20.28417795716,19.302061180602,
    194.46856341946));
#271 = CARTESIAN_POINT('',(-20.19030641583,19.400555694672,
    194.44181907602));
#272 = CARTESIAN_POINT('',(-20.09332610161,19.50113458214,
    194.42074456625));
#273 = CARTESIAN_POINT('',(-19.99367618088,19.603221882986,
    194.40637302395));
#274 = CARTESIAN_POINT('',(-19.89213219982,19.705935397463,
    194.39948233815));
#275 = CARTESIAN_POINT('',(-19.6909860536,19.9069004892,194.40054920348)
  );
#276 = CARTESIAN_POINT('',(-19.59133015442,20.005278117793,
    194.40808076219));
#277 = CARTESIAN_POINT('',(-19.49234294229,20.101800377483,
    194.42260257595));
#278 = CARTESIAN_POINT('',(-19.39481768528,20.195774123131,
    194.44338226655));
#279 = CARTESIAN_POINT('',(-19.29926686931,20.28681198791,
    194.46947742101));
#280 = CARTESIAN_POINT('',(-19.20595943694,20.374766798825,194.5000006)
  );
#281 = PCURVE('',#32,#282);
#282 = DEFINITIONAL_REPRESENTATION('',(#283),#296);
#283 = B_SPLINE_CURVE_WITH_KNOTS('',6,(#284,#285,#286,#287,#288,#289,
    #290,#291,#292,#293,#294,#295),.UNSPECIFIED.,.F.,.F.,(7,5,7),(0.,
    0.507387397177,1.),.UNSPECIFIED.);
#284 = CARTESIAN_POINT('',(3.897469775998,-3.000000000001));
#285 = CARTESIAN_POINT('',(3.902186390357,-2.968563419464));
#286 = CARTESIAN_POINT('',(3.907045696024,-2.941819076028));
#287 = CARTESIAN_POINT('',(3.912035517535,-2.920744566252));
#288 = CARTESIAN_POINT('',(3.917130370375,-2.906373023956));
#289 = CARTESIAN_POINT('',(3.922288637138,-2.899482338152));
#290 = CARTESIAN_POINT('',(3.932443480423,-2.900549203489));
#291 = CARTESIAN_POINT('',(3.937444596132,-2.90808076219));
#292 = CARTESIAN_POINT('',(3.942382209325,-2.922602575955));
#293 = CARTESIAN_POINT('',(3.947219003195,-2.943382266551));
#294 = CARTESIAN_POINT('',(3.9519323897,-2.969477421017));
#295 = CARTESIAN_POINT('',(3.956511947998,-3.000000600001));
#296 = ( GEOMETRIC_REPRESENTATION_CONTEXT(2) 
PARAMETRIC_REPRESENTATION_CONTEXT() REPRESENTATION_CONTEXT('2D SPACE',''
  ) );
#297 = PCURVE('',#298,#303);
#298 = CONICAL_SURFACE('',#299,1.7,0.785398163397);
#299 = AXIS2_PLACEMENT_3D('',#300,#301,#302);
#300 = CARTESIAN_POINT('',(-17.67766952966,17.677669529664,193.1));
#301 = DIRECTION('',(-0.,-0.,1.));
#302 = DIRECTION('',(1.,-0.,-0.));
#303 = DEFINITIONAL_REPRESENTATION('',(#304),#317);
#304 = B_SPLINE_CURVE_WITH_KNOTS('',6,(#305,#306,#307,#308,#309,#310,
    #311,#312,#313,#314,#315,#316),.UNSPECIFIED.,.F.,.F.,(7,5,7),(0.,
    0.507387397177,1.),.UNSPECIFIED.);
#305 = CARTESIAN_POINT('',(-3.657124148904,1.4));
#306 = CARTESIAN_POINT('',(-3.698501274142,1.368563419464));
#307 = CARTESIAN_POINT('',(-3.742080096844,1.341819076028));
#308 = CARTESIAN_POINT('',(-3.787689812403,1.320744566251));
#309 = CARTESIAN_POINT('',(-3.834941501081,1.306373023955));
#310 = CARTESIAN_POINT('',(-3.883104501805,1.299482338152));
#311 = CARTESIAN_POINT('',(-3.977881624727,1.300549203489));
#312 = CARTESIAN_POINT('',(-4.024539608334,1.308080762189));
#313 = CARTESIAN_POINT('',(-4.070275818099,1.322602575957));
#314 = CARTESIAN_POINT('',(-4.114439212131,1.343382266548));
#315 = CARTESIAN_POINT('',(-4.156683506701,1.369477421017));
#316 = CARTESIAN_POINT('',(-4.196858274796,1.400000600001));
#317 = ( GEOMETRIC_REPRESENTATION_CONTEXT(2) 
PARAMETRIC_REPRESENTATION_CONTEXT() REPRESENTATION_CONTEXT('2D SPACE',''
  ) );
#318 = ORIENTED_EDGE('',*,*,#319,.T.);
#319 = EDGE_CURVE('',#265,#320,#322,.T.);
#320 = VERTEX_POINT('',#321);
#321 = CARTESIAN_POINT('',(19.205961271112,20.374765069874,194.5));
#322 = SURFACE_CURVE('',#323,(#328,#335),.PCURVE_S1.);
#323 = CIRCLE('',#324,28.);
#324 = AXIS2_PLACEMENT_3D('',#325,#326,#327);
#325 = CARTESIAN_POINT('',(0.,0.,194.5));
#326 = DIRECTION('',(0.,0.,-1.));
#327 = DIRECTION('',(1.,-0.,-0.));
#328 = PCURVE('',#32,#329);
#329 = DEFINITIONAL_REPRESENTATION('',(#330),#334);
#330 = LINE('',#331,#332);
#331 = CARTESIAN_POINT('',(0.,-3.));
#332 = VECTOR('',#333,1.);
#333 = DIRECTION('',(1.,0.));
#334 = ( GEOMETRIC_REPRESENTATION_CONTEXT(2) 
PARAMETRIC_REPRESENTATION_CONTEXT() REPRESENTATION_CONTEXT('2D SPACE',''
  ) );
#335 = PCURVE('',#100,#336);
#336 = DEFINITIONAL_REPRESENTATION('',(#337),#345);
#337 = ( BOUNDED_CURVE() B_SPLINE_CURVE(2,(#338,#339,#340,#341,#342,#343
,#344),.UNSPECIFIED.,.T.,.F.) B_SPLINE_CURVE_WITH_KNOTS((1,2,2,2,2,1),(
    -2.094395102393,0.,2.094395102393,4.188790204786,6.28318530718,
8.377580409573),.UNSPECIFIED.) CURVE() GEOMETRIC_REPRESENTATION_ITEM() 
RATIONAL_B_SPLINE_CURVE((1.,0.5,1.,0.5,1.,0.5,1.)) REPRESENTATION_ITEM(
  '') );
#338 = CARTESIAN_POINT('',(-28.,1.143003679204E-15));
#339 = CARTESIAN_POINT('',(-28.,48.497422611929));
#340 = CARTESIAN_POINT('',(14.,24.248711305964));
#341 = CARTESIAN_POINT('',(56.,8.001025754429E-15));
#342 = CARTESIAN_POINT('',(14.,-24.24871130596));
#343 = CARTESIAN_POINT('',(-28.,-48.49742261192));
#344 = CARTESIAN_POINT('',(-28.,1.143003679204E-15));
#345 = ( GEOMETRIC_REPRESENTATION_CONTEXT(2) 
PARAMETRIC_REPRESENTATION_CONTEXT() REPRESENTATION_CONTEXT('2D SPACE',''
  ) );
#346 = ORIENTED_EDGE('',*,*,#347,.T.);
#347 = EDGE_CURVE('',#320,#348,#350,.T.);
#348 = VERTEX_POINT('',#349);
#349 = CARTESIAN_POINT('',(20.374765069874,19.205961271112,194.5));
#350 = SURFACE_CURVE('',#351,(#369,#390),.PCURVE_S1.);
#351 = B_SPLINE_CURVE_WITH_KNOTS('',6,(#352,#353,#354,#355,#356,#357,
    #358,#359,#360,#361,#362,#363,#364,#365,#366,#367,#368),
  .UNSPECIFIED.,.F.,.F.,(7,5,5,7),(0.,0.18603203233,0.499390380857,1.),
  .UNSPECIFIED.);
#352 = CARTESIAN_POINT('',(19.205961271112,20.374765069874,194.5));
#353 = CARTESIAN_POINT('',(19.241212432911,20.341536100315,
    194.48846850124));
#354 = CARTESIAN_POINT('',(19.27676935715,20.307880686868,
    194.47757371783));
#355 = CARTESIAN_POINT('',(19.312624398801,20.273800540284,
    194.4673601143));
#356 = CARTESIAN_POINT('',(19.348763701441,20.239303210478,
    194.45787472296));
#357 = CARTESIAN_POINT('',(19.38516617428,20.204403460847,
    194.44916457352));
#358 = CARTESIAN_POINT('',(19.483513824635,20.109699864516,
    194.42798319356));
#359 = CARTESIAN_POINT('',(19.545904097207,20.049184613716,
    194.4170146343));
#360 = CARTESIAN_POINT('',(19.608803879288,19.987718353748,
    194.40858874901));
#361 = CARTESIAN_POINT('',(19.672006685802,19.925482647836,
    194.40288960061));
#362 = CARTESIAN_POINT('',(19.735261723639,19.862713393789,
    194.40002727675));
#363 = CARTESIAN_POINT('',(19.898921001047,19.699066071929,
    194.39995682801));
#364 = CARTESIAN_POINT('',(19.99900989689,19.597756501113,194.4071491018
    ));
#365 = CARTESIAN_POINT('',(20.097221651416,19.49709386633,
    194.42159466153));
#366 = CARTESIAN_POINT('',(20.192819391067,19.39791871028,
    194.44253632795));
#367 = CARTESIAN_POINT('',(20.285388450786,19.300777037914,
    194.46898340735));
#368 = CARTESIAN_POINT('',(20.374766798825,19.205959436943,194.5000006)
  );
#369 = PCURVE('',#32,#370);
#370 = DEFINITIONAL_REPRESENTATION('',(#371),#389);
#371 = B_SPLINE_CURVE_WITH_KNOTS('',6,(#372,#373,#374,#375,#376,#377,
    #378,#379,#380,#381,#382,#383,#384,#385,#386,#387,#388),
  .UNSPECIFIED.,.F.,.F.,(7,5,5,7),(0.,0.18603203233,0.499390380857,1.),
  .UNSPECIFIED.);
#372 = CARTESIAN_POINT('',(5.468266102793,-3.000000000001));
#373 = CARTESIAN_POINT('',(5.469996241112,-2.988468501243));
#374 = CARTESIAN_POINT('',(5.471744772425,-2.977573717836));
#375 = CARTESIAN_POINT('',(5.473511465439,-2.967360114308));
#376 = CARTESIAN_POINT('',(5.475295785457,-2.95787472296));
#377 = CARTESIAN_POINT('',(5.477096833992,-2.949164573528));
#378 = CARTESIAN_POINT('',(5.481972982665,-2.927983193561));
#379 = CARTESIAN_POINT('',(5.485077156813,-2.917014634303));
#380 = CARTESIAN_POINT('',(5.488218048712,-2.908588749019));
#381 = CARTESIAN_POINT('',(5.491385908753,-2.902889600613));
#382 = CARTESIAN_POINT('',(5.494568503057,-2.900027276754));
#383 = CARTESIAN_POINT('',(5.502834242915,-2.899956828013));
#384 = CARTESIAN_POINT('',(5.507920320997,-2.907149101803));
#385 = CARTESIAN_POINT('',(5.512942892598,-2.921594661538));
#386 = CARTESIAN_POINT('',(5.517862356628,-2.942536327954));
#387 = CARTESIAN_POINT('',(5.522654596942,-2.968983407352));
#388 = CARTESIAN_POINT('',(5.527308274793,-3.000000600001));
#389 = ( GEOMETRIC_REPRESENTATION_CONTEXT(2) 
PARAMETRIC_REPRESENTATION_CONTEXT() REPRESENTATION_CONTEXT('2D SPACE',''
  ) );
#390 = PCURVE('',#391,#396);
#391 = CONICAL_SURFACE('',#392,1.7,0.785398163397);
#392 = AXIS2_PLACEMENT_3D('',#393,#394,#395);
#393 = CARTESIAN_POINT('',(17.677669529664,17.677669529664,193.1));
#394 = DIRECTION('',(-0.,-0.,1.));
#395 = DIRECTION('',(1.,-0.,-0.));
#396 = DEFINITIONAL_REPRESENTATION('',(#397),#415);
#397 = B_SPLINE_CURVE_WITH_KNOTS('',6,(#398,#399,#400,#401,#402,#403,
    #404,#405,#406,#407,#408,#409,#410,#411,#412,#413,#414),
  .UNSPECIFIED.,.F.,.F.,(7,5,5,7),(0.,0.18603203233,0.499390380857,1.),
  .UNSPECIFIED.);
#398 = CARTESIAN_POINT('',(-5.227920475699,1.4));
#399 = CARTESIAN_POINT('',(-5.243098343652,1.388468501243));
#400 = CARTESIAN_POINT('',(-5.258565340083,1.377573717835));
#401 = CARTESIAN_POINT('',(-5.274316177912,1.367360114308));
#402 = CARTESIAN_POINT('',(-5.290341046454,1.357874722959));
#403 = CARTESIAN_POINT('',(-5.306624733969,1.349164573528));
#404 = CARTESIAN_POINT('',(-5.350974282206,1.327983193561));
#405 = CARTESIAN_POINT('',(-5.379482945524,1.317014634303));
#406 = CARTESIAN_POINT('',(-5.408557560846,1.308588749018));
#407 = CARTESIAN_POINT('',(-5.438042650146,1.302889600613));
#408 = CARTESIAN_POINT('',(-5.467746499945,1.300027276753));
#409 = CARTESIAN_POINT('',(-5.544893397709,1.299956828013));
#410 = CARTESIAN_POINT('',(-5.592365195433,1.307149101802));
#411 = CARTESIAN_POINT('',(-5.638919920613,1.321594661539));
#412 = CARTESIAN_POINT('',(-5.683864329102,1.342536327951));
#413 = CARTESIAN_POINT('',(-5.726829610122,1.368983407352));
#414 = CARTESIAN_POINT('',(-5.767654601591,1.400000600001));
#415 = ( GEOMETRIC_REPRESENTATION_CONTEXT(2) 
PARAMETRIC_REPRESENTATION_CONTEXT() REPRESENTATION_CONTEXT('2D SPACE',''
  ) );
#416 = ORIENTED_EDGE('',*,*,#417,.T.);
#417 = EDGE_CURVE('',#348,#24,#418,.T.);
#418 = SURFACE_CURVE('',#419,(#424,#431),.PCURVE_S1.);
#419 = CIRCLE('',#420,28.);
#420 = AXIS2_PLACEMENT_3D('',#421,#422,#423);
#421 = CARTESIAN_POINT('',(0.,0.,194.5));
#422 = DIRECTION('',(0.,0.,-1.));
#423 = DIRECTION('',(1.,-0.,-0.));
#424 = PCURVE('',#32,#425);
#425 = DEFINITIONAL_REPRESENTATION('',(#426),#430);
#426 = LINE('',#427,#428);
#427 = CARTESIAN_POINT('',(0.,-3.));
#428 = VECTOR('',#429,1.);
#429 = DIRECTION('',(1.,0.));
#430 = ( GEOMETRIC_REPRESENTATION_CONTEXT(2) 
PARAMETRIC_REPRESENTATION_CONTEXT() REPRESENTATION_CONTEXT('2D SPACE',''
  ) );
#431 = PCURVE('',#100,#432);
#432 = DEFINITIONAL_REPRESENTATION('',(#433),#441);
#433 = ( BOUNDED_CURVE() B_SPLINE_CURVE(2,(#434,#435,#436,#437,#438,#439
,#440),.UNSPECIFIED.,.T.,.F.) B_SPLINE_CURVE_WITH_KNOTS((1,2,2,2,2,1),(
    -2.094395102393,0.,2.094395102393,4.188790204786,6.28318530718,
8.377580409573),.UNSPECIFIED.) CURVE() GEOMETRIC_REPRESENTATION_ITEM() 
RATIONAL_B_SPLINE_CURVE((1.,0.5,1.,0.5,1.,0.5,1.)) REPRESENTATION_ITEM(
  '') );
#434 = CARTESIAN_POINT('',(-28.,1.143003679204E-15));
#435 = CARTESIAN_POINT('',(-28.,48.497422611929));
#436 = CARTESIAN_POINT('',(14.,24.248711305964));
#437 = CARTESIAN_POINT('',(56.,8.001025754429E-15));
#438 = CARTESIAN_POINT('',(14.,-24.24871130596));
#439 = CARTESIAN_POINT('',(-28.,-48.49742261192));
#440 = CARTESIAN_POINT('',(-28.,1.143003679204E-15));
#441 = ( GEOMETRIC_REPRESENTATION_CONTEXT(2) 
PARAMETRIC_REPRESENTATION_CONTEXT() REPRESENTATION_CONTEXT('2D SPACE',''
  ) );
#442 = ADVANCED_FACE('',(#443,#666),#100,.T.);
#443 = FACE_BOUND('',#444,.F.);
#444 = EDGE_LOOP('',(#445,#473,#474,#502,#528,#529,#557,#583,#584,#612,
    #638,#639,#640));
#445 = ORIENTED_EDGE('',*,*,#446,.F.);
#446 = EDGE_CURVE('',#117,#447,#449,.T.);
#447 = VERTEX_POINT('',#448);
#448 = CARTESIAN_POINT('',(20.777669529664,-17.67766952966,194.5));
#449 = SURFACE_CURVE('',#450,(#455,#466),.PCURVE_S1.);
#450 = CIRCLE('',#451,3.1);
#451 = AXIS2_PLACEMENT_3D('',#452,#453,#454);
#452 = CARTESIAN_POINT('',(17.677669529664,-17.67766952966,194.5));
#453 = DIRECTION('',(0.,0.,-1.));
#454 = DIRECTION('',(1.,-0.,-0.));
#455 = PCURVE('',#100,#456);
#456 = DEFINITIONAL_REPRESENTATION('',(#457),#465);
#457 = ( BOUNDED_CURVE() B_SPLINE_CURVE(2,(#458,#459,#460,#461,#462,#463
,#464),.UNSPECIFIED.,.T.,.F.) B_SPLINE_CURVE_WITH_KNOTS((1,2,2,2,2,1),(
    -2.094395102393,0.,2.094395102393,4.188790204786,6.28318530718,
8.377580409573),.UNSPECIFIED.) CURVE() GEOMETRIC_REPRESENTATION_ITEM() 
RATIONAL_B_SPLINE_CURVE((1.,0.5,1.,0.5,1.,0.5,1.)) REPRESENTATION_ITEM(
  '') );
#458 = CARTESIAN_POINT('',(-20.77766952966,17.677669529664));
#459 = CARTESIAN_POINT('',(-20.77766952966,23.047027033127));
#460 = CARTESIAN_POINT('',(-16.12766952966,20.362348281395));
#461 = CARTESIAN_POINT('',(-11.47766952966,17.677669529664));
#462 = CARTESIAN_POINT('',(-16.12766952966,14.992990777932));
#463 = CARTESIAN_POINT('',(-20.77766952966,12.3083120262));
#464 = CARTESIAN_POINT('',(-20.77766952966,17.677669529664));
#465 = ( GEOMETRIC_REPRESENTATION_CONTEXT(2) 
PARAMETRIC_REPRESENTATION_CONTEXT() REPRESENTATION_CONTEXT('2D SPACE',''
  ) );
#466 = PCURVE('',#144,#467);
#467 = DEFINITIONAL_REPRESENTATION('',(#468),#472);
#468 = LINE('',#469,#470);
#469 = CARTESIAN_POINT('',(-0.,1.4));
#470 = VECTOR('',#471,1.);
#471 = DIRECTION('',(-1.,0.));
#472 = ( GEOMETRIC_REPRESENTATION_CONTEXT(2) 
PARAMETRIC_REPRESENTATION_CONTEXT() REPRESENTATION_CONTEXT('2D SPACE',''
  ) );
#473 = ORIENTED_EDGE('',*,*,#162,.T.);
#474 = ORIENTED_EDGE('',*,*,#475,.F.);
#475 = EDGE_CURVE('',#476,#163,#478,.T.);
#476 = VERTEX_POINT('',#477);
#477 = CARTESIAN_POINT('',(-14.57766952966,-17.67766952966,194.5));
#478 = SURFACE_CURVE('',#479,(#484,#495),.PCURVE_S1.);
#479 = CIRCLE('',#480,3.1);
#480 = AXIS2_PLACEMENT_3D('',#481,#482,#483);
#481 = CARTESIAN_POINT('',(-17.67766952966,-17.67766952966,194.5));
#482 = DIRECTION('',(0.,0.,-1.));
#483 = DIRECTION('',(1.,-0.,-0.));
#484 = PCURVE('',#100,#485);
#485 = DEFINITIONAL_REPRESENTATION('',(#486),#494);
#486 = ( BOUNDED_CURVE() B_SPLINE_CURVE(2,(#487,#488,#489,#490,#491,#492
,#493),.UNSPECIFIED.,.T.,.F.) B_SPLINE_CURVE_WITH_KNOTS((1,2,2,2,2,1),(
    -2.094395102393,0.,2.094395102393,4.188790204786,6.28318530718,
8.377580409573),.UNSPECIFIED.) CURVE() GEOMETRIC_REPRESENTATION_ITEM() 
RATIONAL_B_SPLINE_CURVE((1.,0.5,1.,0.5,1.,0.5,1.)) REPRESENTATION_ITEM(
  '') );
#487 = CARTESIAN_POINT('',(14.577669529664,17.677669529664));
#488 = CARTESIAN_POINT('',(14.577669529664,23.047027033127));
#489 = CARTESIAN_POINT('',(19.227669529664,20.362348281395));
#490 = CARTESIAN_POINT('',(23.877669529664,17.677669529664));
#491 = CARTESIAN_POINT('',(19.227669529664,14.992990777932));
#492 = CARTESIAN_POINT('',(14.577669529664,12.3083120262));
#493 = CARTESIAN_POINT('',(14.577669529664,17.677669529664));
#494 = ( GEOMETRIC_REPRESENTATION_CONTEXT(2) 
PARAMETRIC_REPRESENTATION_CONTEXT() REPRESENTATION_CONTEXT('2D SPACE',''
  ) );
#495 = PCURVE('',#218,#496);
#496 = DEFINITIONAL_REPRESENTATION('',(#497),#501);
#497 = LINE('',#498,#499);
#498 = CARTESIAN_POINT('',(-0.,1.4));
#499 = VECTOR('',#500,1.);
#500 = DIRECTION('',(-1.,0.));
#501 = ( GEOMETRIC_REPRESENTATION_CONTEXT(2) 
PARAMETRIC_REPRESENTATION_CONTEXT() REPRESENTATION_CONTEXT('2D SPACE',''
  ) );
#502 = ORIENTED_EDGE('',*,*,#503,.F.);
#503 = EDGE_CURVE('',#191,#476,#504,.T.);
#504 = SURFACE_CURVE('',#505,(#510,#521),.PCURVE_S1.);
#505 = CIRCLE('',#506,3.1);
#506 = AXIS2_PLACEMENT_3D('',#507,#508,#509);
#507 = CARTESIAN_POINT('',(-17.67766952966,-17.67766952966,194.5));
#508 = DIRECTION('',(0.,0.,-1.));
#509 = DIRECTION('',(1.,-0.,-0.));
#510 = PCURVE('',#100,#511);
#511 = DEFINITIONAL_REPRESENTATION('',(#512),#520);
#512 = ( BOUNDED_CURVE() B_SPLINE_CURVE(2,(#513,#514,#515,#516,#517,#518
,#519),.UNSPECIFIED.,.T.,.F.) B_SPLINE_CURVE_WITH_KNOTS((1,2,2,2,2,1),(
    -2.094395102393,0.,2.094395102393,4.188790204786,6.28318530718,
8.377580409573),.UNSPECIFIED.) CURVE() GEOMETRIC_REPRESENTATION_ITEM() 
RATIONAL_B_SPLINE_CURVE((1.,0.5,1.,0.5,1.,0.5,1.)) REPRESENTATION_ITEM(
  '') );
#513 = CARTESIAN_POINT('',(14.577669529664,17.677669529664));
#514 = CARTESIAN_POINT('',(14.577669529664,23.047027033127));
#515 = CARTESIAN_POINT('',(19.227669529664,20.362348281395));
#516 = CARTESIAN_POINT('',(23.877669529664,17.677669529664));
#517 = CARTESIAN_POINT('',(19.227669529664,14.992990777932));
#518 = CARTESIAN_POINT('',(14.577669529664,12.3083120262));
#519 = CARTESIAN_POINT('',(14.577669529664,17.677669529664));
#520 = ( GEOMETRIC_REPRESENTATION_CONTEXT(2) 
PARAMETRIC_REPRESENTATION_CONTEXT() REPRESENTATION_CONTEXT('2D SPACE',''
  ) );
#521 = PCURVE('',#218,#522);
#522 = DEFINITIONAL_REPRESENTATION('',(#523),#527);
#523 = LINE('',#524,#525);
#524 = CARTESIAN_POINT('',(-0.,1.4));
#525 = VECTOR('',#526,1.);
#526 = DIRECTION('',(-1.,0.));
#527 = ( GEOMETRIC_REPRESENTATION_CONTEXT(2) 
PARAMETRIC_REPRESENTATION_CONTEXT() REPRESENTATION_CONTEXT('2D SPACE',''
  ) );
#528 = ORIENTED_EDGE('',*,*,#236,.T.);
#529 = ORIENTED_EDGE('',*,*,#530,.F.);
#530 = EDGE_CURVE('',#531,#237,#533,.T.);
#531 = VERTEX_POINT('',#532);
#532 = CARTESIAN_POINT('',(-14.57766952966,17.677669529664,194.5));
#533 = SURFACE_CURVE('',#534,(#539,#550),.PCURVE_S1.);
#534 = CIRCLE('',#535,3.1);
#535 = AXIS2_PLACEMENT_3D('',#536,#537,#538);
#536 = CARTESIAN_POINT('',(-17.67766952966,17.677669529664,194.5));
#537 = DIRECTION('',(0.,0.,-1.));
#538 = DIRECTION('',(1.,-0.,-0.));
#539 = PCURVE('',#100,#540);
#540 = DEFINITIONAL_REPRESENTATION('',(#541),#549);
#541 = ( BOUNDED_CURVE() B_SPLINE_CURVE(2,(#542,#543,#544,#545,#546,#547
,#548),.UNSPECIFIED.,.T.,.F.) B_SPLINE_CURVE_WITH_KNOTS((1,2,2,2,2,1),(
    -2.094395102393,0.,2.094395102393,4.188790204786,6.28318530718,
8.377580409573),.UNSPECIFIED.) CURVE() GEOMETRIC_REPRESENTATION_ITEM() 
RATIONAL_B_SPLINE_CURVE((1.,0.5,1.,0.5,1.,0.5,1.)) REPRESENTATION_ITEM(
  '') );
#542 = CARTESIAN_POINT('',(14.577669529664,-17.67766952966));
#543 = CARTESIAN_POINT('',(14.577669529664,-12.3083120262));
#544 = CARTESIAN_POINT('',(19.227669529664,-14.99299077793));
#545 = CARTESIAN_POINT('',(23.877669529664,-17.67766952966));
#546 = CARTESIAN_POINT('',(19.227669529664,-20.36234828139));
#547 = CARTESIAN_POINT('',(14.577669529664,-23.04702703312));
#548 = CARTESIAN_POINT('',(14.577669529664,-17.67766952966));
#549 = ( GEOMETRIC_REPRESENTATION_CONTEXT(2) 
PARAMETRIC_REPRESENTATION_CONTEXT() REPRESENTATION_CONTEXT('2D SPACE',''
  ) );
#550 = PCURVE('',#298,#551);
#551 = DEFINITIONAL_REPRESENTATION('',(#552),#556);
#552 = LINE('',#553,#554);
#553 = CARTESIAN_POINT('',(-0.,1.4));
#554 = VECTOR('',#555,1.);
#555 = DIRECTION('',(-1.,0.));
#556 = ( GEOMETRIC_REPRESENTATION_CONTEXT(2) 
PARAMETRIC_REPRESENTATION_CONTEXT() REPRESENTATION_CONTEXT('2D SPACE',''
  ) );
#557 = ORIENTED_EDGE('',*,*,#558,.F.);
#558 = EDGE_CURVE('',#265,#531,#559,.T.);
#559 = SURFACE_CURVE('',#560,(#565,#576),.PCURVE_S1.);
#560 = CIRCLE('',#561,3.1);
#561 = AXIS2_PLACEMENT_3D('',#562,#563,#564);
#562 = CARTESIAN_POINT('',(-17.67766952966,17.677669529664,194.5));
#563 = DIRECTION('',(0.,0.,-1.));
#564 = DIRECTION('',(1.,-0.,-0.));
#565 = PCURVE('',#100,#566);
#566 = DEFINITIONAL_REPRESENTATION('',(#567),#575);
#567 = ( BOUNDED_CURVE() B_SPLINE_CURVE(2,(#568,#569,#570,#571,#572,#573
,#574),.UNSPECIFIED.,.T.,.F.) B_SPLINE_CURVE_WITH_KNOTS((1,2,2,2,2,1),(
    -2.094395102393,0.,2.094395102393,4.188790204786,6.28318530718,
8.377580409573),.UNSPECIFIED.) CURVE() GEOMETRIC_REPRESENTATION_ITEM() 
RATIONAL_B_SPLINE_CURVE((1.,0.5,1.,0.5,1.,0.5,1.)) REPRESENTATION_ITEM(
  '') );
#568 = CARTESIAN_POINT('',(14.577669529664,-17.67766952966));
#569 = CARTESIAN_POINT('',(14.577669529664,-12.3083120262));
#570 = CARTESIAN_POINT('',(19.227669529664,-14.99299077793));
#571 = CARTESIAN_POINT('',(23.877669529664,-17.67766952966));
#572 = CARTESIAN_POINT('',(19.227669529664,-20.36234828139));
#573 = CARTESIAN_POINT('',(14.577669529664,-23.04702703312));
#574 = CARTESIAN_POINT('',(14.577669529664,-17.67766952966));
#575 = ( GEOMETRIC_REPRESENTATION_CONTEXT(2) 
PARAMETRIC_REPRESENTATION_CONTEXT() REPRESENTATION_CONTEXT('2D SPACE',''
  ) );
#576 = PCURVE('',#298,#577);
#577 = DEFINITIONAL_REPRESENTATION('',(#578),#582);
#578 = LINE('',#579,#580);
#579 = CARTESIAN_POINT('',(-0.,1.4));
#580 = VECTOR('',#581,1.);
#581 = DIRECTION('',(-1.,0.));
#582 = ( GEOMETRIC_REPRESENTATION_CONTEXT(2) 
PARAMETRIC_REPRESENTATION_CONTEXT() REPRESENTATION_CONTEXT('2D SPACE',''
  ) );
#583 = ORIENTED_EDGE('',*,*,#319,.T.);
#584 = ORIENTED_EDGE('',*,*,#585,.F.);
#585 = EDGE_CURVE('',#586,#320,#588,.T.);
#586 = VERTEX_POINT('',#587);
#587 = CARTESIAN_POINT('',(20.777669529664,17.677669529664,194.5));
#588 = SURFACE_CURVE('',#589,(#594,#605),.PCURVE_S1.);
#589 = CIRCLE('',#590,3.1);
#590 = AXIS2_PLACEMENT_3D('',#591,#592,#593);
#591 = CARTESIAN_POINT('',(17.677669529664,17.677669529664,194.5));
#592 = DIRECTION('',(0.,0.,-1.));
#593 = DIRECTION('',(1.,-0.,-0.));
#594 = PCURVE('',#100,#595);
#595 = DEFINITIONAL_REPRESENTATION('',(#596),#604);
#596 = ( BOUNDED_CURVE() B_SPLINE_CURVE(2,(#597,#598,#599,#600,#601,#602
,#603),.UNSPECIFIED.,.T.,.F.) B_SPLINE_CURVE_WITH_KNOTS((1,2,2,2,2,1),(
    -2.094395102393,0.,2.094395102393,4.188790204786,6.28318530718,
8.377580409573),.UNSPECIFIED.) CURVE() GEOMETRIC_REPRESENTATION_ITEM() 
RATIONAL_B_SPLINE_CURVE((1.,0.5,1.,0.5,1.,0.5,1.)) REPRESENTATION_ITEM(
  '') );
#597 = CARTESIAN_POINT('',(-20.77766952966,-17.67766952966));
#598 = CARTESIAN_POINT('',(-20.77766952966,-12.3083120262));
#599 = CARTESIAN_POINT('',(-16.12766952966,-14.99299077793));
#600 = CARTESIAN_POINT('',(-11.47766952966,-17.67766952966));
#601 = CARTESIAN_POINT('',(-16.12766952966,-20.36234828139));
#602 = CARTESIAN_POINT('',(-20.77766952966,-23.04702703312));
#603 = CARTESIAN_POINT('',(-20.77766952966,-17.67766952966));
#604 = ( GEOMETRIC_REPRESENTATION_CONTEXT(2) 
PARAMETRIC_REPRESENTATION_CONTEXT() REPRESENTATION_CONTEXT('2D SPACE',''
  ) );
#605 = PCURVE('',#391,#606);
#606 = DEFINITIONAL_REPRESENTATION('',(#607),#611);
#607 = LINE('',#608,#609);
#608 = CARTESIAN_POINT('',(-0.,1.4));
#609 = VECTOR('',#610,1.);
#610 = DIRECTION('',(-1.,0.));
#611 = ( GEOMETRIC_REPRESENTATION_CONTEXT(2) 
PARAMETRIC_REPRESENTATION_CONTEXT() REPRESENTATION_CONTEXT('2D SPACE',''
  ) );
#612 = ORIENTED_EDGE('',*,*,#613,.F.);
#613 = EDGE_CURVE('',#348,#586,#614,.T.);
#614 = SURFACE_CURVE('',#615,(#620,#631),.PCURVE_S1.);
#615 = CIRCLE('',#616,3.1);
#616 = AXIS2_PLACEMENT_3D('',#617,#618,#619);
#617 = CARTESIAN_POINT('',(17.677669529664,17.677669529664,194.5));
#618 = DIRECTION('',(0.,0.,-1.));
#619 = DIRECTION('',(1.,-0.,-0.));
#620 = PCURVE('',#100,#621);
#621 = DEFINITIONAL_REPRESENTATION('',(#622),#630);
#622 = ( BOUNDED_CURVE() B_SPLINE_CURVE(2,(#623,#624,#625,#626,#627,#628
,#629),.UNSPECIFIED.,.T.,.F.) B_SPLINE_CURVE_WITH_KNOTS((1,2,2,2,2,1),(
    -2.094395102393,0.,2.094395102393,4.188790204786,6.28318530718,
8.377580409573),.UNSPECIFIED.) CURVE() GEOMETRIC_REPRESENTATION_ITEM() 
RATIONAL_B_SPLINE_CURVE((1.,0.5,1.,0.5,1.,0.5,1.)) REPRESENTATION_ITEM(
  '') );
#623 = CARTESIAN_POINT('',(-20.77766952966,-17.67766952966));
#624 = CARTESIAN_POINT('',(-20.77766952966,-12.3083120262));
#625 = CARTESIAN_POINT('',(-16.12766952966,-14.99299077793));
#626 = CARTESIAN_POINT('',(-11.47766952966,-17.67766952966));
#627 = CARTESIAN_POINT('',(-16.12766952966,-20.36234828139));
#628 = CARTESIAN_POINT('',(-20.77766952966,-23.04702703312));
#629 = CARTESIAN_POINT('',(-20.77766952966,-17.67766952966));
#630 = ( GEOMETRIC_REPRESENTATION_CONTEXT(2) 
PARAMETRIC_REPRESENTATION_CONTEXT() REPRESENTATION_CONTEXT('2D SPACE',''
  ) );
#631 = PCURVE('',#391,#632);
#632 = DEFINITIONAL_REPRESENTATION('',(#633),#637);
#633 = LINE('',#634,#635);
#634 = CARTESIAN_POINT('',(-0.,1.4));
#635 = VECTOR('',#636,1.);
#636 = DIRECTION('',(-1.,0.));
#637 = ( GEOMETRIC_REPRESENTATION_CONTEXT(2) 
PARAMETRIC_REPRESENTATION_CONTEXT() REPRESENTATION_CONTEXT('2D SPACE',''
  ) );
#638 = ORIENTED_EDGE('',*,*,#417,.T.);
#639 = ORIENTED_EDGE('',*,*,#83,.T.);
#640 = ORIENTED_EDGE('',*,*,#641,.F.);
#641 = EDGE_CURVE('',#447,#84,#642,.T.);
#642 = SURFACE_CURVE('',#643,(#648,#659),.PCURVE_S1.);
#643 = CIRCLE('',#644,3.1);
#644 = AXIS2_PLACEMENT_3D('',#645,#646,#647);
#645 = CARTESIAN_POINT('',(17.677669529664,-17.67766952966,194.5));
#646 = DIRECTION('',(0.,0.,-1.));
#647 = DIRECTION('',(1.,-0.,-0.));
#648 = PCURVE('',#100,#649);
#649 = DEFINITIONAL_REPRESENTATION('',(#650),#658);
#650 = ( BOUNDED_CURVE() B_SPLINE_CURVE(2,(#651,#652,#653,#654,#655,#656
,#657),.UNSPECIFIED.,.T.,.F.) B_SPLINE_CURVE_WITH_KNOTS((1,2,2,2,2,1),(
    -2.094395102393,0.,2.094395102393,4.188790204786,6.28318530718,
8.377580409573),.UNSPECIFIED.) CURVE() GEOMETRIC_REPRESENTATION_ITEM() 
RATIONAL_B_SPLINE_CURVE((1.,0.5,1.,0.5,1.,0.5,1.)) REPRESENTATION_ITEM(
  '') );
#651 = CARTESIAN_POINT('',(-20.77766952966,17.677669529664));
#652 = CARTESIAN_POINT('',(-20.77766952966,23.047027033127));
#653 = CARTESIAN_POINT('',(-16.12766952966,20.362348281395));
#654 = CARTESIAN_POINT('',(-11.47766952966,17.677669529664));
#655 = CARTESIAN_POINT('',(-16.12766952966,14.992990777932));
#656 = CARTESIAN_POINT('',(-20.77766952966,12.3083120262));
#657 = CARTESIAN_POINT('',(-20.77766952966,17.677669529664));
#658 = ( GEOMETRIC_REPRESENTATION_CONTEXT(2) 
PARAMETRIC_REPRESENTATION_CONTEXT() REPRESENTATION_CONTEXT('2D SPACE',''
  ) );
#659 = PCURVE('',#144,#660);
#660 = DEFINITIONAL_REPRESENTATION('',(#661),#665);
#661 = LINE('',#662,#663);
#662 = CARTESIAN_POINT('',(-0.,1.4));
#663 = VECTOR('',#664,1.);
#664 = DIRECTION('',(-1.,0.));
#665 = ( GEOMETRIC_REPRESENTATION_CONTEXT(2) 
PARAMETRIC_REPRESENTATION_CONTEXT() REPRESENTATION_CONTEXT('2D SPACE',''
  ) );
#666 = FACE_BOUND('',#667,.F.);
#667 = EDGE_LOOP('',(#668));
#668 = ORIENTED_EDGE('',*,*,#669,.T.);
#669 = EDGE_CURVE('',#670,#670,#672,.T.);
#670 = VERTEX_POINT('',#671);
#671 = CARTESIAN_POINT('',(19.5,0.,194.5));
#672 = SURFACE_CURVE('',#673,(#678,#685),.PCURVE_S1.);
#673 = CIRCLE('',#674,19.5);
#674 = AXIS2_PLACEMENT_3D('',#675,#676,#677);
#675 = CARTESIAN_POINT('',(0.,0.,194.5));
#676 = DIRECTION('',(0.,0.,1.));
#677 = DIRECTION('',(1.,-0.,-0.));
#678 = PCURVE('',#100,#679);
#679 = DEFINITIONAL_REPRESENTATION('',(#680),#684);
#680 = CIRCLE('',#681,19.5);
#681 = AXIS2_PLACEMENT_2D('',#682,#683);
#682 = CARTESIAN_POINT('',(-1.562788722902E-15,1.143003679204E-15));
#683 = DIRECTION('',(-1.,0.));
#684 = ( GEOMETRIC_REPRESENTATION_CONTEXT(2) 
PARAMETRIC_REPRESENTATION_CONTEXT() REPRESENTATION_CONTEXT('2D SPACE',''
  ) );
#685 = PCURVE('',#686,#691);
#686 = CYLINDRICAL_SURFACE('',#687,19.5);
#687 = AXIS2_PLACEMENT_3D('',#688,#689,#690);
#688 = CARTESIAN_POINT('',(0.,0.,190.5));
#689 = DIRECTION('',(-0.,0.,-1.));
#690 = DIRECTION('',(1.,-0.,-0.));
#691 = DEFINITIONAL_REPRESENTATION('',(#692),#696);
#692 = LINE('',#693,#694);
#693 = CARTESIAN_POINT('',(6.28318530718,-4.));
#694 = VECTOR('',#695,1.);
#695 = DIRECTION('',(-1.,0.));
#696 = ( GEOMETRIC_REPRESENTATION_CONTEXT(2) 
PARAMETRIC_REPRESENTATION_CONTEXT() REPRESENTATION_CONTEXT('2D SPACE',''
  ) );
#697 = ADVANCED_FACE('',(#698),#391,.F.);
#698 = FACE_BOUND('',#699,.T.);
#699 = EDGE_LOOP('',(#700,#723,#724,#725,#726,#727));
#700 = ORIENTED_EDGE('',*,*,#701,.T.);
#701 = EDGE_CURVE('',#702,#586,#704,.T.);
#702 = VERTEX_POINT('',#703);
#703 = CARTESIAN_POINT('',(19.377669529664,17.677669529664,193.1));
#704 = SEAM_CURVE('',#705,(#709,#716),.PCURVE_S1.);
#705 = LINE('',#706,#707);
#706 = CARTESIAN_POINT('',(19.377669529664,17.677669529664,193.1));
#707 = VECTOR('',#708,1.);
#708 = DIRECTION('',(0.707106781187,1.731912112471E-16,0.707106781187));
#709 = PCURVE('',#391,#710);
#710 = DEFINITIONAL_REPRESENTATION('',(#711),#715);
#711 = LINE('',#712,#713);
#712 = CARTESIAN_POINT('',(-6.28318530718,-0.));
#713 = VECTOR('',#714,1.);
#714 = DIRECTION('',(-0.,1.));
#715 = ( GEOMETRIC_REPRESENTATION_CONTEXT(2) 
PARAMETRIC_REPRESENTATION_CONTEXT() REPRESENTATION_CONTEXT('2D SPACE',''
  ) );
#716 = PCURVE('',#391,#717);
#717 = DEFINITIONAL_REPRESENTATION('',(#718),#722);
#718 = LINE('',#719,#720);
#719 = CARTESIAN_POINT('',(-0.,-0.));
#720 = VECTOR('',#721,1.);
#721 = DIRECTION('',(-0.,1.));
#722 = ( GEOMETRIC_REPRESENTATION_CONTEXT(2) 
PARAMETRIC_REPRESENTATION_CONTEXT() REPRESENTATION_CONTEXT('2D SPACE',''
  ) );
#723 = ORIENTED_EDGE('',*,*,#613,.F.);
#724 = ORIENTED_EDGE('',*,*,#347,.F.);
#725 = ORIENTED_EDGE('',*,*,#585,.F.);
#726 = ORIENTED_EDGE('',*,*,#701,.F.);
#727 = ORIENTED_EDGE('',*,*,#728,.T.);
#728 = EDGE_CURVE('',#702,#702,#729,.T.);
#729 = SURFACE_CURVE('',#730,(#735,#742),.PCURVE_S1.);
#730 = CIRCLE('',#731,1.7);
#731 = AXIS2_PLACEMENT_3D('',#732,#733,#734);
#732 = CARTESIAN_POINT('',(17.677669529664,17.677669529664,193.1));
#733 = DIRECTION('',(0.,0.,-1.));
#734 = DIRECTION('',(1.,-0.,-0.));
#735 = PCURVE('',#391,#736);
#736 = DEFINITIONAL_REPRESENTATION('',(#737),#741);
#737 = LINE('',#738,#739);
#738 = CARTESIAN_POINT('',(-0.,0.));
#739 = VECTOR('',#740,1.);
#740 = DIRECTION('',(-1.,0.));
#741 = ( GEOMETRIC_REPRESENTATION_CONTEXT(2) 
PARAMETRIC_REPRESENTATION_CONTEXT() REPRESENTATION_CONTEXT('2D SPACE',''
  ) );
#742 = PCURVE('',#743,#748);
#743 = CYLINDRICAL_SURFACE('',#744,1.7);
#744 = AXIS2_PLACEMENT_3D('',#745,#746,#747);
#745 = CARTESIAN_POINT('',(17.677669529664,17.677669529664,190.5));
#746 = DIRECTION('',(-0.,0.,-1.));
#747 = DIRECTION('',(1.,-0.,-0.));
#748 = DEFINITIONAL_REPRESENTATION('',(#749),#753);
#749 = LINE('',#750,#751);
#750 = CARTESIAN_POINT('',(0.,-2.6));
#751 = VECTOR('',#752,1.);
#752 = DIRECTION('',(1.,0.));
#753 = ( GEOMETRIC_REPRESENTATION_CONTEXT(2) 
PARAMETRIC_REPRESENTATION_CONTEXT() REPRESENTATION_CONTEXT('2D SPACE',''
  ) );
#754 = ADVANCED_FACE('',(#755),#298,.F.);
#755 = FACE_BOUND('',#756,.T.);
#756 = EDGE_LOOP('',(#757,#780,#781,#782,#783,#784));
#757 = ORIENTED_EDGE('',*,*,#758,.T.);
#758 = EDGE_CURVE('',#759,#531,#761,.T.);
#759 = VERTEX_POINT('',#760);
#760 = CARTESIAN_POINT('',(-15.97766952966,17.677669529664,193.1));
#761 = SEAM_CURVE('',#762,(#766,#773),.PCURVE_S1.);
#762 = LINE('',#763,#764);
#763 = CARTESIAN_POINT('',(-15.97766952966,17.677669529664,193.1));
#764 = VECTOR('',#765,1.);
#765 = DIRECTION('',(0.707106781187,1.731912112471E-16,0.707106781187));
#766 = PCURVE('',#298,#767);
#767 = DEFINITIONAL_REPRESENTATION('',(#768),#772);
#768 = LINE('',#769,#770);
#769 = CARTESIAN_POINT('',(-6.28318530718,-0.));
#770 = VECTOR('',#771,1.);
#771 = DIRECTION('',(-0.,1.));
#772 = ( GEOMETRIC_REPRESENTATION_CONTEXT(2) 
PARAMETRIC_REPRESENTATION_CONTEXT() REPRESENTATION_CONTEXT('2D SPACE',''
  ) );
#773 = PCURVE('',#298,#774);
#774 = DEFINITIONAL_REPRESENTATION('',(#775),#779);
#775 = LINE('',#776,#777);
#776 = CARTESIAN_POINT('',(-0.,-0.));
#777 = VECTOR('',#778,1.);
#778 = DIRECTION('',(-0.,1.));
#779 = ( GEOMETRIC_REPRESENTATION_CONTEXT(2) 
PARAMETRIC_REPRESENTATION_CONTEXT() REPRESENTATION_CONTEXT('2D SPACE',''
  ) );
#780 = ORIENTED_EDGE('',*,*,#558,.F.);
#781 = ORIENTED_EDGE('',*,*,#264,.F.);
#782 = ORIENTED_EDGE('',*,*,#530,.F.);
#783 = ORIENTED_EDGE('',*,*,#758,.F.);
#784 = ORIENTED_EDGE('',*,*,#785,.T.);
#785 = EDGE_CURVE('',#759,#759,#786,.T.);
#786 = SURFACE_CURVE('',#787,(#792,#799),.PCURVE_S1.);
#787 = CIRCLE('',#788,1.7);
#788 = AXIS2_PLACEMENT_3D('',#789,#790,#791);
#789 = CARTESIAN_POINT('',(-17.67766952966,17.677669529664,193.1));
#790 = DIRECTION('',(0.,0.,-1.));
#791 = DIRECTION('',(1.,-0.,-0.));
#792 = PCURVE('',#298,#793);
#793 = DEFINITIONAL_REPRESENTATION('',(#794),#798);
#794 = LINE('',#795,#796);
#795 = CARTESIAN_POINT('',(-0.,0.));
#796 = VECTOR('',#797,1.);
#797 = DIRECTION('',(-1.,0.));
#798 = ( GEOMETRIC_REPRESENTATION_CONTEXT(2) 
PARAMETRIC_REPRESENTATION_CONTEXT() REPRESENTATION_CONTEXT('2D SPACE',''
  ) );
#799 = PCURVE('',#800,#805);
#800 = CYLINDRICAL_SURFACE('',#801,1.7);
#801 = AXIS2_PLACEMENT_3D('',#802,#803,#804);
#802 = CARTESIAN_POINT('',(-17.67766952966,17.677669529664,190.5));
#803 = DIRECTION('',(-0.,0.,-1.));
#804 = DIRECTION('',(1.,-0.,-0.));
#805 = DEFINITIONAL_REPRESENTATION('',(#806),#810);
#806 = LINE('',#807,#808);
#807 = CARTESIAN_POINT('',(0.,-2.6));
#808 = VECTOR('',#809,1.);
#809 = DIRECTION('',(1.,0.));
#810 = ( GEOMETRIC_REPRESENTATION_CONTEXT(2) 
PARAMETRIC_REPRESENTATION_CONTEXT() REPRESENTATION_CONTEXT('2D SPACE',''
  ) );
#811 = ADVANCED_FACE('',(#812),#218,.F.);
#812 = FACE_BOUND('',#813,.T.);
#813 = EDGE_LOOP('',(#814,#837,#838,#839,#840,#841));
#814 = ORIENTED_EDGE('',*,*,#815,.T.);
#815 = EDGE_CURVE('',#816,#476,#818,.T.);
#816 = VERTEX_POINT('',#817);
#817 = CARTESIAN_POINT('',(-15.97766952966,-17.67766952966,193.1));
#818 = SEAM_CURVE('',#819,(#823,#830),.PCURVE_S1.);
#819 = LINE('',#820,#821);
#820 = CARTESIAN_POINT('',(-15.97766952966,-17.67766952966,193.1));
#821 = VECTOR('',#822,1.);
#822 = DIRECTION('',(0.707106781187,1.731912112471E-16,0.707106781187));
#823 = PCURVE('',#218,#824);
#824 = DEFINITIONAL_REPRESENTATION('',(#825),#829);
#825 = LINE('',#826,#827);
#826 = CARTESIAN_POINT('',(-6.28318530718,-0.));
#827 = VECTOR('',#828,1.);
#828 = DIRECTION('',(-0.,1.));
#829 = ( GEOMETRIC_REPRESENTATION_CONTEXT(2) 
PARAMETRIC_REPRESENTATION_CONTEXT() REPRESENTATION_CONTEXT('2D SPACE',''
  ) );
#830 = PCURVE('',#218,#831);
#831 = DEFINITIONAL_REPRESENTATION('',(#832),#836);
#832 = LINE('',#833,#834);
#833 = CARTESIAN_POINT('',(-0.,-0.));
#834 = VECTOR('',#835,1.);
#835 = DIRECTION('',(-0.,1.));
#836 = ( GEOMETRIC_REPRESENTATION_CONTEXT(2) 
PARAMETRIC_REPRESENTATION_CONTEXT() REPRESENTATION_CONTEXT('2D SPACE',''
  ) );
#837 = ORIENTED_EDGE('',*,*,#503,.F.);
#838 = ORIENTED_EDGE('',*,*,#190,.F.);
#839 = ORIENTED_EDGE('',*,*,#475,.F.);
#840 = ORIENTED_EDGE('',*,*,#815,.F.);
#841 = ORIENTED_EDGE('',*,*,#842,.T.);
#842 = EDGE_CURVE('',#816,#816,#843,.T.);
#843 = SURFACE_CURVE('',#844,(#849,#856),.PCURVE_S1.);
#844 = CIRCLE('',#845,1.7);
#845 = AXIS2_PLACEMENT_3D('',#846,#847,#848);
#846 = CARTESIAN_POINT('',(-17.67766952966,-17.67766952966,193.1));
#847 = DIRECTION('',(0.,0.,-1.));
#848 = DIRECTION('',(1.,-0.,-0.));
#849 = PCURVE('',#218,#850);
#850 = DEFINITIONAL_REPRESENTATION('',(#851),#855);
#851 = LINE('',#852,#853);
#852 = CARTESIAN_POINT('',(-0.,0.));
#853 = VECTOR('',#854,1.);
#854 = DIRECTION('',(-1.,0.));
#855 = ( GEOMETRIC_REPRESENTATION_CONTEXT(2) 
PARAMETRIC_REPRESENTATION_CONTEXT() REPRESENTATION_CONTEXT('2D SPACE',''
  ) );
#856 = PCURVE('',#857,#862);
#857 = CYLINDRICAL_SURFACE('',#858,1.7);
#858 = AXIS2_PLACEMENT_3D('',#859,#860,#861);
#859 = CARTESIAN_POINT('',(-17.67766952966,-17.67766952966,190.5));
#860 = DIRECTION('',(-0.,0.,-1.));
#861 = DIRECTION('',(1.,-0.,-0.));
#862 = DEFINITIONAL_REPRESENTATION('',(#863),#867);
#863 = LINE('',#864,#865);
#864 = CARTESIAN_POINT('',(0.,-2.6));
#865 = VECTOR('',#866,1.);
#866 = DIRECTION('',(1.,0.));
#867 = ( GEOMETRIC_REPRESENTATION_CONTEXT(2) 
PARAMETRIC_REPRESENTATION_CONTEXT() REPRESENTATION_CONTEXT('2D SPACE',''
  ) );
#868 = ADVANCED_FACE('',(#869),#144,.F.);
#869 = FACE_BOUND('',#870,.T.);
#870 = EDGE_LOOP('',(#871,#894,#895,#896,#897,#898));
#871 = ORIENTED_EDGE('',*,*,#872,.T.);
#872 = EDGE_CURVE('',#873,#447,#875,.T.);
#873 = VERTEX_POINT('',#874);
#874 = CARTESIAN_POINT('',(19.377669529664,-17.67766952966,193.1));
#875 = SEAM_CURVE('',#876,(#880,#887),.PCURVE_S1.);
#876 = LINE('',#877,#878);
#877 = CARTESIAN_POINT('',(19.377669529664,-17.67766952966,193.1));
#878 = VECTOR('',#879,1.);
#879 = DIRECTION('',(0.707106781187,1.731912112471E-16,0.707106781187));
#880 = PCURVE('',#144,#881);
#881 = DEFINITIONAL_REPRESENTATION('',(#882),#886);
#882 = LINE('',#883,#884);
#883 = CARTESIAN_POINT('',(-6.28318530718,-0.));
#884 = VECTOR('',#885,1.);
#885 = DIRECTION('',(-0.,1.));
#886 = ( GEOMETRIC_REPRESENTATION_CONTEXT(2) 
PARAMETRIC_REPRESENTATION_CONTEXT() REPRESENTATION_CONTEXT('2D SPACE',''
  ) );
#887 = PCURVE('',#144,#888);
#888 = DEFINITIONAL_REPRESENTATION('',(#889),#893);
#889 = LINE('',#890,#891);
#890 = CARTESIAN_POINT('',(-0.,-0.));
#891 = VECTOR('',#892,1.);
#892 = DIRECTION('',(-0.,1.));
#893 = ( GEOMETRIC_REPRESENTATION_CONTEXT(2) 
PARAMETRIC_REPRESENTATION_CONTEXT() REPRESENTATION_CONTEXT('2D SPACE',''
  ) );
#894 = ORIENTED_EDGE('',*,*,#446,.F.);
#895 = ORIENTED_EDGE('',*,*,#116,.F.);
#896 = ORIENTED_EDGE('',*,*,#641,.F.);
#897 = ORIENTED_EDGE('',*,*,#872,.F.);
#898 = ORIENTED_EDGE('',*,*,#899,.T.);
#899 = EDGE_CURVE('',#873,#873,#900,.T.);
#900 = SURFACE_CURVE('',#901,(#906,#913),.PCURVE_S1.);
#901 = CIRCLE('',#902,1.7);
#902 = AXIS2_PLACEMENT_3D('',#903,#904,#905);
#903 = CARTESIAN_POINT('',(17.677669529664,-17.67766952966,193.1));
#904 = DIRECTION('',(0.,0.,-1.));
#905 = DIRECTION('',(1.,-0.,-0.));
#906 = PCURVE('',#144,#907);
#907 = DEFINITIONAL_REPRESENTATION('',(#908),#912);
#908 = LINE('',#909,#910);
#909 = CARTESIAN_POINT('',(-0.,0.));
#910 = VECTOR('',#911,1.);
#911 = DIRECTION('',(-1.,0.));
#912 = ( GEOMETRIC_REPRESENTATION_CONTEXT(2) 
PARAMETRIC_REPRESENTATION_CONTEXT() REPRESENTATION_CONTEXT('2D SPACE',''
  ) );
#913 = PCURVE('',#914,#919);
#914 = CYLINDRICAL_SURFACE('',#915,1.7);
#915 = AXIS2_PLACEMENT_3D('',#916,#917,#918);
#916 = CARTESIAN_POINT('',(17.677669529664,-17.67766952966,190.5));
#917 = DIRECTION('',(-0.,0.,-1.));
#918 = DIRECTION('',(1.,-0.,-0.));
#919 = DEFINITIONAL_REPRESENTATION('',(#920),#924);
#920 = LINE('',#921,#922);
#921 = CARTESIAN_POINT('',(0.,-2.6));
#922 = VECTOR('',#923,1.);
#923 = DIRECTION('',(1.,0.));
#924 = ( GEOMETRIC_REPRESENTATION_CONTEXT(2) 
PARAMETRIC_REPRESENTATION_CONTEXT() REPRESENTATION_CONTEXT('2D SPACE',''
  ) );
#925 = ADVANCED_FACE('',(#926,#929,#955,#981,#1007,#1033),#66,.F.);
#926 = FACE_BOUND('',#927,.T.);
#927 = EDGE_LOOP('',(#928));
#928 = ORIENTED_EDGE('',*,*,#51,.T.);
#929 = FACE_BOUND('',#930,.T.);
#930 = EDGE_LOOP('',(#931));
#931 = ORIENTED_EDGE('',*,*,#932,.T.);
#932 = EDGE_CURVE('',#933,#933,#935,.T.);
#933 = VERTEX_POINT('',#934);
#934 = CARTESIAN_POINT('',(-15.97766952966,17.677669529664,191.5));
#935 = SURFACE_CURVE('',#936,(#941,#948),.PCURVE_S1.);
#936 = CIRCLE('',#937,1.7);
#937 = AXIS2_PLACEMENT_3D('',#938,#939,#940);
#938 = CARTESIAN_POINT('',(-17.67766952966,17.677669529664,191.5));
#939 = DIRECTION('',(0.,0.,1.));
#940 = DIRECTION('',(1.,-0.,-0.));
#941 = PCURVE('',#66,#942);
#942 = DEFINITIONAL_REPRESENTATION('',(#943),#947);
#943 = CIRCLE('',#944,1.7);
#944 = AXIS2_PLACEMENT_2D('',#945,#946);
#945 = CARTESIAN_POINT('',(17.677669529664,-17.67766952966));
#946 = DIRECTION('',(-1.,0.));
#947 = ( GEOMETRIC_REPRESENTATION_CONTEXT(2) 
PARAMETRIC_REPRESENTATION_CONTEXT() REPRESENTATION_CONTEXT('2D SPACE',''
  ) );
#948 = PCURVE('',#800,#949);
#949 = DEFINITIONAL_REPRESENTATION('',(#950),#954);
#950 = LINE('',#951,#952);
#951 = CARTESIAN_POINT('',(6.28318530718,-1.));
#952 = VECTOR('',#953,1.);
#953 = DIRECTION('',(-1.,0.));
#954 = ( GEOMETRIC_REPRESENTATION_CONTEXT(2) 
PARAMETRIC_REPRESENTATION_CONTEXT() REPRESENTATION_CONTEXT('2D SPACE',''
  ) );
#955 = FACE_BOUND('',#956,.T.);
#956 = EDGE_LOOP('',(#957));
#957 = ORIENTED_EDGE('',*,*,#958,.T.);
#958 = EDGE_CURVE('',#959,#959,#961,.T.);
#959 = VERTEX_POINT('',#960);
#960 = CARTESIAN_POINT('',(19.377669529664,17.677669529664,191.5));
#961 = SURFACE_CURVE('',#962,(#967,#974),.PCURVE_S1.);
#962 = CIRCLE('',#963,1.7);
#963 = AXIS2_PLACEMENT_3D('',#964,#965,#966);
#964 = CARTESIAN_POINT('',(17.677669529664,17.677669529664,191.5));
#965 = DIRECTION('',(0.,0.,1.));
#966 = DIRECTION('',(1.,-0.,-0.));
#967 = PCURVE('',#66,#968);
#968 = DEFINITIONAL_REPRESENTATION('',(#969),#973);
#969 = CIRCLE('',#970,1.7);
#970 = AXIS2_PLACEMENT_2D('',#971,#972);
#971 = CARTESIAN_POINT('',(-17.67766952966,-17.67766952966));
#972 = DIRECTION('',(-1.,0.));
#973 = ( GEOMETRIC_REPRESENTATION_CONTEXT(2) 
PARAMETRIC_REPRESENTATION_CONTEXT() REPRESENTATION_CONTEXT('2D SPACE',''
  ) );
#974 = PCURVE('',#743,#975);
#975 = DEFINITIONAL_REPRESENTATION('',(#976),#980);
#976 = LINE('',#977,#978);
#977 = CARTESIAN_POINT('',(6.28318530718,-1.));
#978 = VECTOR('',#979,1.);
#979 = DIRECTION('',(-1.,0.));
#980 = ( GEOMETRIC_REPRESENTATION_CONTEXT(2) 
PARAMETRIC_REPRESENTATION_CONTEXT() REPRESENTATION_CONTEXT('2D SPACE',''
  ) );
#981 = FACE_BOUND('',#982,.T.);
#982 = EDGE_LOOP('',(#983));
#983 = ORIENTED_EDGE('',*,*,#984,.T.);
#984 = EDGE_CURVE('',#985,#985,#987,.T.);
#985 = VERTEX_POINT('',#986);
#986 = CARTESIAN_POINT('',(-15.97766952966,-17.67766952966,191.5));
#987 = SURFACE_CURVE('',#988,(#993,#1000),.PCURVE_S1.);
#988 = CIRCLE('',#989,1.7);
#989 = AXIS2_PLACEMENT_3D('',#990,#991,#992);
#990 = CARTESIAN_POINT('',(-17.67766952966,-17.67766952966,191.5));
#991 = DIRECTION('',(0.,0.,1.));
#992 = DIRECTION('',(1.,-0.,-0.));
#993 = PCURVE('',#66,#994);
#994 = DEFINITIONAL_REPRESENTATION('',(#995),#999);
#995 = CIRCLE('',#996,1.7);
#996 = AXIS2_PLACEMENT_2D('',#997,#998);
#997 = CARTESIAN_POINT('',(17.677669529664,17.677669529664));
#998 = DIRECTION('',(-1.,0.));
#999 = ( GEOMETRIC_REPRESENTATION_CONTEXT(2) 
PARAMETRIC_REPRESENTATION_CONTEXT() REPRESENTATION_CONTEXT('2D SPACE',''
  ) );
#1000 = PCURVE('',#857,#1001);
#1001 = DEFINITIONAL_REPRESENTATION('',(#1002),#1006);
#1002 = LINE('',#1003,#1004);
#1003 = CARTESIAN_POINT('',(6.28318530718,-1.));
#1004 = VECTOR('',#1005,1.);
#1005 = DIRECTION('',(-1.,0.));
#1006 = ( GEOMETRIC_REPRESENTATION_CONTEXT(2) 
PARAMETRIC_REPRESENTATION_CONTEXT() REPRESENTATION_CONTEXT('2D SPACE',''
  ) );
#1007 = FACE_BOUND('',#1008,.T.);
#1008 = EDGE_LOOP('',(#1009));
#1009 = ORIENTED_EDGE('',*,*,#1010,.T.);
#1010 = EDGE_CURVE('',#1011,#1011,#1013,.T.);
#1011 = VERTEX_POINT('',#1012);
#1012 = CARTESIAN_POINT('',(19.5,0.,191.5));
#1013 = SURFACE_CURVE('',#1014,(#1019,#1026),.PCURVE_S1.);
#1014 = CIRCLE('',#1015,19.5);
#1015 = AXIS2_PLACEMENT_3D('',#1016,#1017,#1018);
#1016 = CARTESIAN_POINT('',(0.,0.,191.5));
#1017 = DIRECTION('',(0.,0.,1.));
#1018 = DIRECTION('',(1.,-0.,-0.));
#1019 = PCURVE('',#66,#1020);
#1020 = DEFINITIONAL_REPRESENTATION('',(#1021),#1025);
#1021 = CIRCLE('',#1022,19.5);
#1022 = AXIS2_PLACEMENT_2D('',#1023,#1024);
#1023 = CARTESIAN_POINT('',(-1.562788722902E-15,1.143003679204E-15));
#1024 = DIRECTION('',(-1.,0.));
#1025 = ( GEOMETRIC_REPRESENTATION_CONTEXT(2) 
PARAMETRIC_REPRESENTATION_CONTEXT() REPRESENTATION_CONTEXT('2D SPACE',''
  ) );
#1026 = PCURVE('',#686,#1027);
#1027 = DEFINITIONAL_REPRESENTATION('',(#1028),#1032);
#1028 = LINE('',#1029,#1030);
#1029 = CARTESIAN_POINT('',(6.28318530718,-1.));
#1030 = VECTOR('',#1031,1.);
#1031 = DIRECTION('',(-1.,0.));
#1032 = ( GEOMETRIC_REPRESENTATION_CONTEXT(2) 
PARAMETRIC_REPRESENTATION_CONTEXT() REPRESENTATION_CONTEXT('2D SPACE',''
  ) );
#1033 = FACE_BOUND('',#1034,.T.);
#1034 = EDGE_LOOP('',(#1035));
#1035 = ORIENTED_EDGE('',*,*,#1036,.T.);
#1036 = EDGE_CURVE('',#1037,#1037,#1039,.T.);
#1037 = VERTEX_POINT('',#1038);
#1038 = CARTESIAN_POINT('',(19.377669529664,-17.67766952966,191.5));
#1039 = SURFACE_CURVE('',#1040,(#1045,#1052),.PCURVE_S1.);
#1040 = CIRCLE('',#1041,1.7);
#1041 = AXIS2_PLACEMENT_3D('',#1042,#1043,#1044);
#1042 = CARTESIAN_POINT('',(17.677669529664,-17.67766952966,191.5));
#1043 = DIRECTION('',(0.,0.,1.));
#1044 = DIRECTION('',(1.,-0.,-0.));
#1045 = PCURVE('',#66,#1046);
#1046 = DEFINITIONAL_REPRESENTATION('',(#1047),#1051);
#1047 = CIRCLE('',#1048,1.7);
#1048 = AXIS2_PLACEMENT_2D('',#1049,#1050);
#1049 = CARTESIAN_POINT('',(-17.67766952966,17.677669529664));
#1050 = DIRECTION('',(-1.,0.));
#1051 = ( GEOMETRIC_REPRESENTATION_CONTEXT(2) 
PARAMETRIC_REPRESENTATION_CONTEXT() REPRESENTATION_CONTEXT('2D SPACE',''
  ) );
#1052 = PCURVE('',#914,#1053);
#1053 = DEFINITIONAL_REPRESENTATION('',(#1054),#1058);
#1054 = LINE('',#1055,#1056);
#1055 = CARTESIAN_POINT('',(6.28318530718,-1.));
#1056 = VECTOR('',#1057,1.);
#1057 = DIRECTION('',(-1.,0.));
#1058 = ( GEOMETRIC_REPRESENTATION_CONTEXT(2) 
PARAMETRIC_REPRESENTATION_CONTEXT() REPRESENTATION_CONTEXT('2D SPACE',''
  ) );
#1059 = ADVANCED_FACE('',(#1060),#686,.F.);
#1060 = FACE_BOUND('',#1061,.F.);
#1061 = EDGE_LOOP('',(#1062,#1063,#1084,#1085));
#1062 = ORIENTED_EDGE('',*,*,#1010,.T.);
#1063 = ORIENTED_EDGE('',*,*,#1064,.T.);
#1064 = EDGE_CURVE('',#1011,#670,#1065,.T.);
#1065 = SEAM_CURVE('',#1066,(#1070,#1077),.PCURVE_S1.);
#1066 = LINE('',#1067,#1068);
#1067 = CARTESIAN_POINT('',(19.5,0.,190.5));
#1068 = VECTOR('',#1069,1.);
#1069 = DIRECTION('',(-0.,-0.,1.));
#1070 = PCURVE('',#686,#1071);
#1071 = DEFINITIONAL_REPRESENTATION('',(#1072),#1076);
#1072 = LINE('',#1073,#1074);
#1073 = CARTESIAN_POINT('',(6.28318530718,0.));
#1074 = VECTOR('',#1075,1.);
#1075 = DIRECTION('',(0.,-1.));
#1076 = ( GEOMETRIC_REPRESENTATION_CONTEXT(2) 
PARAMETRIC_REPRESENTATION_CONTEXT() REPRESENTATION_CONTEXT('2D SPACE',''
  ) );
#1077 = PCURVE('',#686,#1078);
#1078 = DEFINITIONAL_REPRESENTATION('',(#1079),#1083);
#1079 = LINE('',#1080,#1081);
#1080 = CARTESIAN_POINT('',(0.,0.));
#1081 = VECTOR('',#1082,1.);
#1082 = DIRECTION('',(0.,-1.));
#1083 = ( GEOMETRIC_REPRESENTATION_CONTEXT(2) 
PARAMETRIC_REPRESENTATION_CONTEXT() REPRESENTATION_CONTEXT('2D SPACE',''
  ) );
#1084 = ORIENTED_EDGE('',*,*,#669,.F.);
#1085 = ORIENTED_EDGE('',*,*,#1064,.F.);
#1086 = ADVANCED_FACE('',(#1087),#743,.F.);
#1087 = FACE_BOUND('',#1088,.F.);
#1088 = EDGE_LOOP('',(#1089,#1110,#1111,#1112));
#1089 = ORIENTED_EDGE('',*,*,#1090,.F.);
#1090 = EDGE_CURVE('',#959,#702,#1091,.T.);
#1091 = SEAM_CURVE('',#1092,(#1096,#1103),.PCURVE_S1.);
#1092 = LINE('',#1093,#1094);
#1093 = CARTESIAN_POINT('',(19.377669529664,17.677669529664,190.5));
#1094 = VECTOR('',#1095,1.);
#1095 = DIRECTION('',(-0.,-0.,1.));
#1096 = PCURVE('',#743,#1097);
#1097 = DEFINITIONAL_REPRESENTATION('',(#1098),#1102);
#1098 = LINE('',#1099,#1100);
#1099 = CARTESIAN_POINT('',(6.28318530718,0.));
#1100 = VECTOR('',#1101,1.);
#1101 = DIRECTION('',(0.,-1.));
#1102 = ( GEOMETRIC_REPRESENTATION_CONTEXT(2) 
PARAMETRIC_REPRESENTATION_CONTEXT() REPRESENTATION_CONTEXT('2D SPACE',''
  ) );
#1103 = PCURVE('',#743,#1104);
#1104 = DEFINITIONAL_REPRESENTATION('',(#1105),#1109);
#1105 = LINE('',#1106,#1107);
#1106 = CARTESIAN_POINT('',(0.,0.));
#1107 = VECTOR('',#1108,1.);
#1108 = DIRECTION('',(0.,-1.));
#1109 = ( GEOMETRIC_REPRESENTATION_CONTEXT(2) 
PARAMETRIC_REPRESENTATION_CONTEXT() REPRESENTATION_CONTEXT('2D SPACE',''
  ) );
#1110 = ORIENTED_EDGE('',*,*,#958,.T.);
#1111 = ORIENTED_EDGE('',*,*,#1090,.T.);
#1112 = ORIENTED_EDGE('',*,*,#728,.T.);
#1113 = ADVANCED_FACE('',(#1114),#800,.F.);
#1114 = FACE_BOUND('',#1115,.F.);
#1115 = EDGE_LOOP('',(#1116,#1137,#1138,#1139));
#1116 = ORIENTED_EDGE('',*,*,#1117,.F.);
#1117 = EDGE_CURVE('',#933,#759,#1118,.T.);
#1118 = SEAM_CURVE('',#1119,(#1123,#1130),.PCURVE_S1.);
#1119 = LINE('',#1120,#1121);
#1120 = CARTESIAN_POINT('',(-15.97766952966,17.677669529664,190.5));
#1121 = VECTOR('',#1122,1.);
#1122 = DIRECTION('',(-0.,-0.,1.));
#1123 = PCURVE('',#800,#1124);
#1124 = DEFINITIONAL_REPRESENTATION('',(#1125),#1129);
#1125 = LINE('',#1126,#1127);
#1126 = CARTESIAN_POINT('',(6.28318530718,0.));
#1127 = VECTOR('',#1128,1.);
#1128 = DIRECTION('',(0.,-1.));
#1129 = ( GEOMETRIC_REPRESENTATION_CONTEXT(2) 
PARAMETRIC_REPRESENTATION_CONTEXT() REPRESENTATION_CONTEXT('2D SPACE',''
  ) );
#1130 = PCURVE('',#800,#1131);
#1131 = DEFINITIONAL_REPRESENTATION('',(#1132),#1136);
#1132 = LINE('',#1133,#1134);
#1133 = CARTESIAN_POINT('',(0.,0.));
#1134 = VECTOR('',#1135,1.);
#1135 = DIRECTION('',(0.,-1.));
#1136 = ( GEOMETRIC_REPRESENTATION_CONTEXT(2) 
PARAMETRIC_REPRESENTATION_CONTEXT() REPRESENTATION_CONTEXT('2D SPACE',''
  ) );
#1137 = ORIENTED_EDGE('',*,*,#932,.T.);
#1138 = ORIENTED_EDGE('',*,*,#1117,.T.);
#1139 = ORIENTED_EDGE('',*,*,#785,.T.);
#1140 = ADVANCED_FACE('',(#1141),#857,.F.);
#1141 = FACE_BOUND('',#1142,.F.);
#1142 = EDGE_LOOP('',(#1143,#1164,#1165,#1166));
#1143 = ORIENTED_EDGE('',*,*,#1144,.F.);
#1144 = EDGE_CURVE('',#985,#816,#1145,.T.);
#1145 = SEAM_CURVE('',#1146,(#1150,#1157),.PCURVE_S1.);
#1146 = LINE('',#1147,#1148);
#1147 = CARTESIAN_POINT('',(-15.97766952966,-17.67766952966,190.5));
#1148 = VECTOR('',#1149,1.);
#1149 = DIRECTION('',(-0.,-0.,1.));
#1150 = PCURVE('',#857,#1151);
#1151 = DEFINITIONAL_REPRESENTATION('',(#1152),#1156);
#1152 = LINE('',#1153,#1154);
#1153 = CARTESIAN_POINT('',(6.28318530718,0.));
#1154 = VECTOR('',#1155,1.);
#1155 = DIRECTION('',(0.,-1.));
#1156 = ( GEOMETRIC_REPRESENTATION_CONTEXT(2) 
PARAMETRIC_REPRESENTATION_CONTEXT() REPRESENTATION_CONTEXT('2D SPACE',''
  ) );
#1157 = PCURVE('',#857,#1158);
#1158 = DEFINITIONAL_REPRESENTATION('',(#1159),#1163);
#1159 = LINE('',#1160,#1161);
#1160 = CARTESIAN_POINT('',(0.,0.));
#1161 = VECTOR('',#1162,1.);
#1162 = DIRECTION('',(0.,-1.));
#1163 = ( GEOMETRIC_REPRESENTATION_CONTEXT(2) 
PARAMETRIC_REPRESENTATION_CONTEXT() REPRESENTATION_CONTEXT('2D SPACE',''
  ) );
#1164 = ORIENTED_EDGE('',*,*,#984,.T.);
#1165 = ORIENTED_EDGE('',*,*,#1144,.T.);
#1166 = ORIENTED_EDGE('',*,*,#842,.T.);
#1167 = ADVANCED_FACE('',(#1168),#914,.F.);
#1168 = FACE_BOUND('',#1169,.F.);
#1169 = EDGE_LOOP('',(#1170,#1191,#1192,#1193));
#1170 = ORIENTED_EDGE('',*,*,#1171,.F.);
#1171 = EDGE_CURVE('',#1037,#873,#1172,.T.);
#1172 = SEAM_CURVE('',#1173,(#1177,#1184),.PCURVE_S1.);
#1173 = LINE('',#1174,#1175);
#1174 = CARTESIAN_POINT('',(19.377669529664,-17.67766952966,190.5));
#1175 = VECTOR('',#1176,1.);
#1176 = DIRECTION('',(-0.,-0.,1.));
#1177 = PCURVE('',#914,#1178);
#1178 = DEFINITIONAL_REPRESENTATION('',(#1179),#1183);
#1179 = LINE('',#1180,#1181);
#1180 = CARTESIAN_POINT('',(6.28318530718,0.));
#1181 = VECTOR('',#1182,1.);
#1182 = DIRECTION('',(0.,-1.));
#1183 = ( GEOMETRIC_REPRESENTATION_CONTEXT(2) 
PARAMETRIC_REPRESENTATION_CONTEXT() REPRESENTATION_CONTEXT('2D SPACE',''
  ) );
#1184 = PCURVE('',#914,#1185);
#1185 = DEFINITIONAL_REPRESENTATION('',(#1186),#1190);
#1186 = LINE('',#1187,#1188);
#1187 = CARTESIAN_POINT('',(0.,0.));
#1188 = VECTOR('',#1189,1.);
#1189 = DIRECTION('',(0.,-1.));
#1190 = ( GEOMETRIC_REPRESENTATION_CONTEXT(2) 
PARAMETRIC_REPRESENTATION_CONTEXT() REPRESENTATION_CONTEXT('2D SPACE',''
  ) );
#1191 = ORIENTED_EDGE('',*,*,#1036,.T.);
#1192 = ORIENTED_EDGE('',*,*,#1171,.T.);
#1193 = ORIENTED_EDGE('',*,*,#899,.T.);
#1194 = ( GEOMETRIC_REPRESENTATION_CONTEXT(3) 
GLOBAL_UNCERTAINTY_ASSIGNED_CONTEXT((#1198)) 
GLOBAL_UNIT_ASSIGNED_CONTEXT((#1195,#1196,#1197)) REPRESENTATION_CONTEXT
('Context #1','3D Context with UNIT and UNCERTAINTY') );
#1195 = ( LENGTH_UNIT() NAMED_UNIT(*) SI_UNIT(.MILLI.,.METRE.) );
#1196 = ( NAMED_UNIT(*) PLANE_ANGLE_UNIT() SI_UNIT($,.RADIAN.) );
#1197 = ( NAMED_UNIT(*) SI_UNIT($,.STERADIAN.) SOLID_ANGLE_UNIT() );
#1198 = UNCERTAINTY_MEASURE_WITH_UNIT(LENGTH_MEASURE(1.E-07),#1195,
  'distance_accuracy_value','confusion accuracy');
#1199 = PRODUCT_RELATED_PRODUCT_CATEGORY('part',$,(#7));
ENDSEC;
END-ISO-10303-21;
